<?xml version="1.0" encoding="UTF-8" standalone="no"?>
<!-- Created with Inkscape (http://www.inkscape.org/) -->

<svg
   xmlns:dc="http://purl.org/dc/elements/1.1/"
   xmlns:cc="http://creativecommons.org/ns#"
   xmlns:rdf="http://www.w3.org/1999/02/22-rdf-syntax-ns#"
   xmlns:svg="http://www.w3.org/2000/svg"
   xmlns="http://www.w3.org/2000/svg"
   xmlns:sodipodi="http://sodipodi.sourceforge.net/DTD/sodipodi-0.dtd"
   xmlns:inkscape="http://www.inkscape.org/namespaces/inkscape"
   width="1920px"
   height="1080px"
   viewBox="0 0 1920 1080"
   version="1.1"
   id="SVGRoot"
   inkscape:version="0.92.2 5c3e80d, 2017-08-06"
   sodipodi:docname="platinumgold.svg">
  <sodipodi:namedview
     id="base"
     pagecolor="#ffffff"
     bordercolor="#666666"
     borderopacity="1.0"
     inkscape:pageopacity="0.0"
     inkscape:pageshadow="2"
     inkscape:zoom="0.35"
     inkscape:cx="697.06654"
     inkscape:cy="540"
     inkscape:document-units="px"
     inkscape:current-layer="layer1"
     showgrid="false"
     inkscape:window-width="1285"
     inkscape:window-height="711"
     inkscape:window-x="61"
     inkscape:window-y="0"
     inkscape:window-maximized="0"
     inkscape:snap-text-baseline="true" />
  <defs
     id="defs10" />
  <metadata
     id="metadata13">
    <rdf:RDF>
      <cc:Work
         rdf:about="">
        <dc:format>image/svg+xml</dc:format>
        <dc:type
           rdf:resource="http://purl.org/dc/dcmitype/StillImage" />
        <dc:title></dc:title>
      </cc:Work>
    </rdf:RDF>
  </metadata>
  <g
     id="layer1"
     inkscape:groupmode="layer"
     inkscape:label="Layer 1">
    <g
       aria-label="PLATINUMGOLDRECORDSUNLIMITED@GMAIL.COM "
       transform="scale(0.53507837,1.8688851)"
       style="font-style:normal;font-variant:normal;font-weight:bold;font-stretch:normal;font-size:168.37919617px;line-height:11.75;font-family:'Avenir Next Condensed';-inkscape-font-specification:'Avenir Next Condensed, Bold';letter-spacing:5.57070255px;word-spacing:5.88085222px;fill:#000000;fill-opacity:1;stroke:none;stroke-width:1.19287014"
       id="text3717">
      <path
         d="m 111.44056,120.44359 q 0,9.93437 -3.03083,17.17468 -3.03082,7.2403 -8.0822,11.95492 -5.051375,4.71462 -11.449785,7.07193 -6.398409,2.18893 -12.965198,2.18893 H 64.294383 v 43.44183 H 37.858849 V 83.063408 h 37.043423 q 6.398409,0 12.796819,1.852171 6.566788,1.852171 11.786544,6.23003 5.388135,4.20948 8.587335,11.449781 3.36759,7.24031 3.36759,17.8482 z m -25.256882,0.50514 q 0,-8.0822 -3.872721,-11.61817 -3.872722,-3.53596 -9.429235,-3.53596 h -8.587339 v 31.15015 h 8.587339 q 5.556513,0 9.429235,-4.0411 3.872721,-4.20948 3.872721,-11.95492 z"/>
      <path
         d="M 131.23667,202.27588 V 83.063408 h 27.27743 v 94.292352 h 31.82367 v 24.92012 z" />
      <path
         d="m 261.04228,202.27588 -4.883,-21.72092 h -26.77229 l -4.883,21.72092 H 197.56332 L 226.52454,83.063408 h 33.84422 L 289.1616,202.27588 Z m -17.8482,-93.28208 h -0.67351 l -10.10275,50.68214 h 20.37388 z"
          />
      <path
         d="m 339.75534,105.96298 v 96.3129 h -26.43553 v -96.3129 h -21.8893 V 83.063408 h 70.21413 v 22.899572 z"
        />
      <path
         d="M 377.49697,202.27588 V 83.063408 h 27.10905 V 202.27588 Z"
      />
      <path
         d="m 482.93498,202.27588 -27.61419,-72.57143 h -0.50514 l 0.67352,72.57143 H 431.41094 V 83.063408 h 29.63474 l 27.44581,73.581712 h 0.50514 l -0.50514,-73.581712 h 23.23633 V 202.27588 Z"
       />
      <path
         d="m 617.23418,158.16053 q 0,9.93437 -2.35731,18.52171 -2.18893,8.58734 -7.07192,14.98575 -4.883,6.39841 -12.62844,10.10275 -7.74545,3.70434 -18.69009,3.70434 -10.94465,0 -18.52172,-3.70434 -7.57706,-3.70434 -12.46006,-10.10275 -4.71461,-6.39841 -6.90354,-14.98575 -2.02055,-8.58734 -2.02055,-18.52171 V 83.063408 h 27.10905 v 72.739812 q 0,5.05138 0.50514,9.42924 0.67351,4.37785 2.18892,7.57706 1.51542,3.03083 4.04111,4.883 2.52568,1.85217 6.56678,1.85217 4.0411,0 6.56679,-1.85217 2.52569,-1.85217 4.0411,-4.883 1.51542,-3.19921 2.02055,-7.57706 0.67352,-4.37786 0.67352,-9.42924 V 83.063408 h 26.94067 v 75.097122 z"
      />
      <path
         d="m 724.01392,202.27588 1.01027,-81.83229 h -0.67351 l -20.03713,81.83229 H 685.2867 l -19.3636,-81.83229 h -0.50514 l 0.8419,81.83229 H 641.84487 V 83.063408 h 34.0126 l 19.19523,76.780912 h 0.67351 l 18.6901,-76.780912 h 36.03314 V 202.27588 Z"
      />
      <path
         d="m 853.08817,195.20395 q -5.7249,4.37786 -13.8071,7.07193 -8.0822,2.69407 -19.02685,2.69407 -11.2814,0 -20.2055,-4.54624 -8.75572,-4.54624 -14.98575,-12.62844 -6.06165,-8.25058 -9.42923,-19.70037 -3.19921,-11.44978 -3.19921,-25.42526 0,-13.97547 3.19921,-25.42526 3.36758,-11.61816 9.42923,-19.86874 6.06165,-8.41896 14.48061,-12.965198 8.58734,-4.546239 19.02685,-4.546239 12.1233,0 20.2055,4.20948 8.25059,4.041101 12.9652,10.271131 l -14.64899,19.700366 q -6.06165,-8.41896 -16.50116,-8.41896 -5.55651,0 -9.59761,3.03083 -4.0411,2.86244 -6.73517,7.91382 -2.69407,5.05137 -4.0411,11.78654 -1.17866,6.73517 -1.17866,14.31223 0,7.57707 1.17866,14.31224 1.17865,6.73516 3.70434,11.78654 2.69407,5.05137 6.56679,8.0822 4.0411,3.03083 9.59761,3.03083 6.06165,0 9.42924,-2.52569 V 155.1297 H 816.71826 V 131.725 h 36.36991 v 63.47895 z"
       />
      <path
         d="m 963.98795,142.33289 q 0,14.14385 -3.1992,25.93039 -3.19921,11.61817 -9.09248,19.86875 -5.89327,8.25058 -14.48061,12.79682 -8.41896,4.54623 -19.02685,4.54623 -10.60789,0 -19.19523,-4.54623 -8.41896,-4.54624 -14.31223,-12.79682 -5.89327,-8.25058 -9.09247,-19.86875 -3.19921,-11.78654 -3.19921,-25.93039 0,-14.14386 3.03083,-25.59364 3.1992,-11.61817 9.09247,-19.700369 5.89327,-8.25058 14.31223,-12.628439 8.58734,-4.546239 19.36361,-4.546239 10.60789,0 19.02685,4.546239 8.58734,4.377859 14.48061,12.628439 5.89327,8.082199 9.09248,19.700369 3.1992,11.44978 3.1992,25.59364 z m -27.61419,0 q 0,-7.74545 -1.17865,-14.31224 -1.17865,-6.73516 -3.53596,-11.61816 -2.18893,-4.883 -5.55652,-7.57706 -3.36758,-2.86245 -7.91382,-2.86245 -4.54624,0 -8.0822,2.86245 -3.36758,2.69406 -5.72489,7.57706 -2.18893,4.883 -3.36759,11.61816 -1.01027,6.56679 -1.01027,14.31224 0,7.74544 1.01027,14.48061 1.17866,6.73516 3.36759,11.61816 2.35731,4.883 5.72489,7.74544 3.53596,2.86245 8.0822,2.86245 4.54624,0 7.91382,-2.86245 3.36759,-2.86244 5.55652,-7.74544 2.35731,-4.883 3.53596,-11.61816 1.17865,-6.73517 1.17865,-14.48061 z"
       />
      <path
         d="M 985.77828,202.27588 V 83.063408 h 27.27742 v 94.292352 h 31.8237 v 24.92012 z"
      />
      <path
         d="m 1145.7238,143.0064 q 0,13.47034 -3.0308,24.41499 -2.8625,10.94464 -8.9241,18.69009 -6.0617,7.74544 -15.4909,11.95492 -9.2609,4.20948 -22.0577,4.20948 h -33.5074 V 83.063408 h 33.5074 q 12.7968,0 22.0577,4.20948 9.4292,4.20948 15.4909,12.123302 6.0616,7.74544 8.9241,18.85847 3.0308,10.94465 3.0308,24.75174 z m -27.1091,0 q 0,-18.01657 -6.23,-27.10905 -6.0616,-9.26085 -15.8276,-9.26085 h -6.5668 v 72.06629 h 6.5668 q 9.766,0 15.8276,-9.09248 6.23,-9.26085 6.23,-26.60391 z"
       />
      <path
         d="m 1217.4412,202.27588 -15.9961,-47.48293 h -7.9138 v 47.48293 h -25.9304 V 83.063408 h 38.2221 q 17.343,0 26.9407,9.092477 9.5976,8.924095 9.5976,26.772295 0,6.56679 -1.5154,11.78654 -1.5154,5.21976 -4.0411,8.9241 -2.3573,3.70434 -5.3882,6.06165 -3.0308,2.35731 -5.8932,3.36758 l 20.3738,53.20783 z m -1.6838,-81.83229 q 0,-4.54624 -1.3471,-7.40869 -1.1786,-2.86244 -3.1992,-4.54623 -2.0205,-1.6838 -4.5462,-2.18893 -2.3573,-0.67352 -4.7146,-0.67352 h -8.419 v 30.13988 h 7.9138 q 5.7249,0 9.9344,-3.53597 4.3779,-3.70434 4.3779,-11.78654 z"
       />
      <path
         d="M 1264.2674,202.27588 V 83.063408 h 57.5857 v 23.741462 h -31.8237 v 23.40471 h 29.298 v 22.22606 h -29.298 v 25.76201 h 33.8443 v 24.07823 z"
       />
      <path
         d="m 1419.572,189.31068 q -4.883,6.90355 -12.7968,11.61817 -7.9138,4.54623 -20.2055,4.54623 -10.4395,0 -19.0269,-4.54623 -8.4189,-4.71462 -14.4806,-12.9652 -6.0616,-8.41896 -9.4292,-19.86875 -3.3676,-11.61816 -3.3676,-25.42526 0,-13.97547 3.3676,-25.59363 3.3676,-11.61817 9.4292,-19.86875 6.0617,-8.25058 14.4806,-12.796818 8.5874,-4.546239 19.0269,-4.546239 11.9549,0 19.8687,4.377859 8.0822,4.20948 12.9652,10.60789 l -14.4806,19.531988 q -3.0308,-4.0411 -6.9035,-6.39841 -3.7044,-2.35731 -9.4293,-2.35731 -5.3881,0 -9.4292,2.86245 -3.8727,2.86244 -6.7352,7.91382 -2.694,4.883 -4.0411,11.78654 -1.347,6.73517 -1.347,14.48061 0,7.74545 1.347,14.48061 1.3471,6.73517 4.0411,11.78655 2.8625,5.05137 6.9036,7.91382 4.0411,2.86245 9.4292,2.86245 5.3881,0 9.4292,-2.69407 4.0411,-2.69407 6.3985,-6.39841 l 14.9857,18.69009 z"
       />
      <path
         d="m 1521.6239,142.33289 q 0,14.14385 -3.1992,25.93039 -3.1992,11.61817 -9.0924,19.86875 -5.8933,8.25058 -14.4807,12.79682 -8.4189,4.54623 -19.0268,4.54623 -10.6079,0 -19.1952,-4.54623 -8.419,-4.54624 -14.3123,-12.79682 -5.8932,-8.25058 -9.0924,-19.86875 -3.1992,-11.78654 -3.1992,-25.93039 0,-14.14386 3.0308,-25.59364 3.1992,-11.61817 9.0925,-19.700369 5.8932,-8.25058 14.3122,-12.628439 8.5873,-4.546239 19.3636,-4.546239 10.6079,0 19.0268,4.546239 8.5874,4.377859 14.4807,12.628439 5.8932,8.082199 9.0924,19.700369 3.1992,11.44978 3.1992,25.59364 z m -27.6141,0 q 0,-7.74545 -1.1787,-14.31224 -1.1787,-6.73516 -3.536,-11.61816 -2.1889,-4.883 -5.5565,-7.57706 -3.3676,-2.86245 -7.9138,-2.86245 -4.5462,0 -8.0822,2.86245 -3.3676,2.69406 -5.7249,7.57706 -2.1889,4.883 -3.3676,11.61816 -1.0103,6.56679 -1.0103,14.31224 0,7.74544 1.0103,14.48061 1.1787,6.73516 3.3676,11.61816 2.3573,4.883 5.7249,7.74544 3.536,2.86245 8.0822,2.86245 4.5462,0 7.9138,-2.86245 3.3676,-2.86244 5.5565,-7.74544 2.3573,-4.883 3.536,-11.61816 1.1787,-6.73517 1.1787,-14.48061 z"
       />
      <path
         d="m 1593.2545,202.27588 -15.996,-47.48293 h -7.9138 v 47.48293 h -25.9304 V 83.063408 h 38.222 q 17.3431,0 26.9407,9.092477 9.5976,8.924095 9.5976,26.772295 0,6.56679 -1.5154,11.78654 -1.5154,5.21976 -4.0411,8.9241 -2.3573,3.70434 -5.3881,6.06165 -3.0308,2.35731 -5.8933,3.36758 l 20.3739,53.20783 z m -1.6838,-81.83229 q 0,-4.54624 -1.347,-7.40869 -1.1787,-2.86244 -3.1992,-4.54623 -2.0206,-1.6838 -4.5463,-2.18893 -2.3573,-0.67352 -4.7146,-0.67352 h -8.4189 v 30.13988 h 7.9138 q 5.7249,0 9.9344,-3.53597 4.3778,-3.70434 4.3778,-11.78654 z"
       />
      <path
         d="m 1723.0917,143.0064 q 0,13.47034 -3.0308,24.41499 -2.8625,10.94464 -8.9241,18.69009 -6.0617,7.74544 -15.4909,11.95492 -9.2608,4.20948 -22.0577,4.20948 h -33.5074 V 83.063408 h 33.5074 q 12.7969,0 22.0577,4.20948 9.4292,4.20948 15.4909,12.123302 6.0616,7.74544 8.9241,18.85847 3.0308,10.94465 3.0308,24.75174 z m -27.109,0 q 0,-18.01657 -6.2301,-27.10905 -6.0616,-9.26085 -15.8276,-9.26085 h -6.5668 v 72.06629 h 6.5668 q 9.766,0 15.8276,-9.09248 6.2301,-9.26085 6.2301,-26.60391 z"
       />
      <path
         d="m 1794.3041,111.68787 q -3.0309,-3.53596 -7.072,-5.38813 -4.0411,-2.02055 -8.4189,-2.02055 -4.5463,0 -8.2506,2.86244 -3.536,2.86245 -3.536,9.42924 0,5.55651 3.7044,8.75572 3.7043,3.03082 10.9446,6.73516 4.0411,2.02055 8.419,4.883 4.5462,2.69407 8.2506,6.73517 3.7043,4.0411 6.0616,9.76599 2.5257,5.55652 2.5257,13.30196 0,9.59761 -3.0308,17.0063 -3.0309,7.2403 -8.2506,12.1233 -5.0514,4.71462 -11.7865,7.07193 -6.7352,2.52568 -13.9755,2.52568 -10.7763,0 -19.7004,-4.0411 -8.7557,-4.0411 -14.1438,-9.42923 l 13.8071,-20.20551 q 3.8727,4.04111 8.9241,6.56679 5.0513,2.35731 10.2711,2.35731 4.883,0 8.2506,-3.1992 3.3675,-3.19921 3.3675,-8.9241 0,-5.89327 -4.0411,-9.26086 -4.0411,-3.53596 -11.7865,-7.40868 -4.883,-2.35731 -9.2609,-5.21976 -4.2094,-2.86244 -7.577,-6.90354 -3.1992,-4.0411 -5.0514,-9.42924 -1.8522,-5.38813 -1.8522,-12.79682 0,-9.93437 3.1992,-17.0063 3.3676,-7.240301 8.5874,-11.786539 5.3881,-4.546239 11.7865,-6.735168 6.5668,-2.18893 13.1336,-2.18893 9.766,0 17.5114,3.199205 7.7455,3.199205 12.9652,8.755718 z"
       />
      <path
         d="m 1906.785,158.16053 q 0,9.93437 -2.3573,18.52171 -2.1889,8.58734 -7.0719,14.98575 -4.883,6.39841 -12.6285,10.10275 -7.7454,3.70434 -18.69,3.70434 -10.9447,0 -18.5218,-3.70434 -7.577,-3.70434 -12.46,-10.10275 -4.7146,-6.39841 -6.9036,-14.98575 -2.0205,-8.58734 -2.0205,-18.52171 V 83.063408 h 27.109 v 72.739812 q 0,5.05138 0.5052,9.42924 0.6735,4.37785 2.1889,7.57706 1.5154,3.03083 4.0411,4.883 2.5257,1.85217 6.5668,1.85217 4.0411,0 6.5668,-1.85217 2.5257,-1.85217 4.0411,-4.883 1.5154,-3.19921 2.0205,-7.57706 0.6736,-4.37786 0.6736,-9.42924 V 83.063408 h 26.9406 v 75.097122 z"
      />
      <path
         d="m 1982.9197,202.27588 -27.6141,-72.57143 h -0.5052 l 0.6735,72.57143 h -24.0782 V 83.063408 h 29.6348 l 27.4458,73.581712 h 0.5051 l -0.5051,-73.581712 h 23.2363 V 202.27588 Z"
      />
      <path
         d="M 2038.5859,202.27588 V 83.063408 h 27.2774 v 94.292352 h 31.8237 v 24.92012 z"
       />
      <path
         d="M 2115.5205,202.27588 V 83.063408 h 27.109 V 202.27588 Z"
        />
      <path
         d="m 2251.6033,202.27588 1.0103,-81.83229 h -0.6735 l -20.0371,81.83229 h -19.0269 l -19.3636,-81.83229 h -0.5051 l 0.8419,81.83229 h -24.415 V 83.063408 h 34.0126 l 19.1952,76.780912 h 0.6735 l 18.6901,-76.780912 h 36.0332 V 202.27588 Z"
      />
      <path
         d="M 2304.9069,202.27588 V 83.063408 h 27.1091 V 202.27588 Z"
         />
      <path
         d="m 2396.3696,105.96298 v 96.3129 h -26.4356 v -96.3129 h -21.8893 V 83.063408 h 70.2142 v 22.899572 z"
         />
      <path
         d="M 2434.111,202.27588 V 83.063408 h 57.5857 v 23.741462 h -31.8236 v 23.40471 h 29.2979 v 22.22606 h -29.2979 v 25.76201 h 33.8442 v 24.07823 z"
         />
      <path
         d="m 2598.0031,143.0064 q 0,13.47034 -3.0308,24.41499 -2.8625,10.94464 -8.9241,18.69009 -6.0617,7.74544 -15.4909,11.95492 -9.2609,4.20948 -22.0577,4.20948 h -33.5075 V 83.063408 h 33.5075 q 12.7968,0 22.0577,4.20948 9.4292,4.20948 15.4909,12.123302 6.0616,7.74544 8.9241,18.85847 3.0308,10.94465 3.0308,24.75174 z m -27.1091,0 q 0,-18.01657 -6.23,-27.10905 -6.0616,-9.26085 -15.8276,-9.26085 h -6.5668 v 72.06629 h 6.5668 q 9.766,0 15.8276,-9.09248 6.23,-9.26085 6.23,-26.60391 z"
         />
      <path
         d="m 2711.31,134.41906 q 0,8.75572 -1.8522,16.33278 -1.8521,7.40869 -5.2197,12.9652 -3.3676,5.38814 -8.2506,8.58734 -4.883,3.03083 -10.9447,3.03083 -5.3881,0 -8.7557,-2.86245 -3.3676,-2.86245 -3.7043,-9.26085 h -0.3368 q -1.8522,4.88299 -5.7249,8.58733 -3.7043,3.53597 -9.5976,3.53597 -4.3778,0 -7.9138,-2.18893 -3.3676,-2.18893 -5.7249,-6.06165 -2.3573,-3.87272 -3.7043,-9.09248 -1.1787,-5.21975 -1.1787,-11.11303 0,-7.2403 1.5154,-14.14385 1.6838,-7.07193 4.7146,-12.46006 3.0309,-5.55651 7.4087,-8.9241 4.5463,-3.36758 10.2711,-3.36758 5.3882,0 8.2506,3.1992 3.0309,3.03083 3.8727,6.90355 h 0.3368 l 1.1787,-5.72489 h 13.8071 l -3.8728,22.56281 q -0.8419,5.89327 -1.5154,10.77627 -0.6735,4.71462 -0.6735,7.07193 0,2.52568 0.6735,4.54623 0.8419,2.02055 3.536,2.02055 4.0411,0 7.2403,-6.23003 3.3676,-6.23003 3.3676,-18.35333 0,-19.70036 -9.0925,-30.64501 -8.9241,-11.113029 -24.7517,-11.113029 -8.0822,0 -14.649,4.0411 -6.5668,3.872719 -11.2814,10.607889 -4.5463,6.73517 -7.072,15.82765 -2.5257,8.92409 -2.5257,19.19522 0,10.77627 2.5257,19.86875 2.5257,8.9241 7.2403,15.49088 4.883,6.56679 11.7866,10.27114 6.9035,3.53596 15.6592,3.53596 8.419,0 15.9961,-3.36759 7.7454,-3.36758 13.4703,-9.26085 l 7.4087,11.28141 q -7.7455,7.57706 -17.3431,11.2814 -9.4292,3.53596 -20.879,3.53596 -11.9549,0 -21.3841,-4.54623 -9.2609,-4.71462 -15.6593,-12.9652 -6.3984,-8.41896 -9.766,-19.86875 -3.3676,-11.44978 -3.3676,-25.0885 0,-13.30195 3.536,-24.75174 3.5359,-11.61816 9.9343,-20.037124 6.5668,-8.418959 15.6593,-13.133577 9.2609,-4.882997 20.7107,-4.882997 10.7762,0 19.3636,3.535964 8.7557,3.535963 14.8173,10.43951 6.0617,6.903544 9.2609,17.174674 3.1992,10.10276 3.1992,23.23633 z m -40.0743,1.85217 q 0,-5.38813 -1.5154,-9.09247 -1.347,-3.70434 -5.2197,-3.70434 -2.3573,0 -4.3779,2.18892 -1.8522,2.02056 -3.1992,5.38814 -1.347,3.1992 -2.0205,7.40868 -0.6736,4.20948 -0.6736,8.41896 0,5.38814 1.5155,8.9241 1.6837,3.53596 5.5565,3.53596 2.5257,0 4.3778,-2.3573 1.8522,-2.35731 3.0309,-5.89328 1.347,-3.53596 1.8521,-7.40868 0.6735,-4.0411 0.6735,-7.40869 z"
         />
      <path
         d="m 2809.0894,195.20395 q -5.7248,4.37786 -13.807,7.07193 -8.0822,2.69407 -19.0269,2.69407 -11.2814,0 -20.2055,-4.54624 -8.7557,-4.54624 -14.9857,-12.62844 -6.0617,-8.25058 -9.4293,-19.70037 -3.1992,-11.44978 -3.1992,-25.42526 0,-13.97547 3.1992,-25.42526 3.3676,-11.61816 9.4293,-19.86874 6.0616,-8.41896 14.4806,-12.965198 8.5873,-4.546239 19.0268,-4.546239 12.1233,0 20.2055,4.20948 8.2506,4.041101 12.9652,10.271131 l -14.649,19.700366 q -6.0616,-8.41896 -16.5011,-8.41896 -5.5566,0 -9.5977,3.03083 -4.0411,2.86244 -6.7351,7.91382 -2.6941,5.05137 -4.0411,11.78654 -1.1787,6.73517 -1.1787,14.31223 0,7.57707 1.1787,14.31224 1.1786,6.73516 3.7043,11.78654 2.6941,5.05137 6.5668,8.0822 4.0411,3.03083 9.5976,3.03083 6.0617,0 9.4293,-2.52569 V 155.1297 h -12.7969 V 131.725 h 36.3699 v 63.47895 z"
         />
      <path
         d="m 2915.4429,202.27588 1.0103,-81.83229 h -0.6735 l -20.0371,81.83229 h -19.0269 l -19.3636,-81.83229 h -0.5051 l 0.8419,81.83229 h -24.415 V 83.063408 h 34.0126 l 19.1952,76.780912 h 0.6735 l 18.6901,-76.780912 h 36.0332 V 202.27588 Z"
      />
      <path
         d="m 3021.6176,202.27588 -4.883,-21.72092 h -26.7723 l -4.883,21.72092 h -26.9406 l 28.9612,-119.212472 h 33.8442 l 28.7928,119.212472 z m -17.8482,-93.28208 h -0.6735 l -10.1028,50.68214 h 20.3739 z"
       />
      <path
         d="M 3065.7419,202.27588 V 83.063408 h 27.1091 V 202.27588 Z"
       />
      <path
         d="M 3119.656,202.27588 V 83.063408 h 27.2774 v 94.292352 h 31.8237 v 24.92012 z"
       />
      <path
         d="m 3223.0258,188.63716 q 0,6.39841 -4.0411,10.77627 -4.0411,4.37786 -10.2711,4.37786 -6.3984,0 -10.4395,-4.37786 -3.8727,-4.37786 -3.8727,-10.77627 0,-6.23003 3.8727,-10.77626 4.0411,-4.54624 10.4395,-4.54624 6.23,0 10.2711,4.54624 4.0411,4.54623 4.0411,10.77626 z"
       />
      <path
         d="m 3321.9682,189.31068 q -4.883,6.90355 -12.7968,11.61817 -7.9138,4.54623 -20.2055,4.54623 -10.4395,0 -19.0268,-4.54623 -8.419,-4.71462 -14.4806,-12.9652 -6.0617,-8.41896 -9.4293,-19.86875 -3.3676,-11.61816 -3.3676,-25.42526 0,-13.97547 3.3676,-25.59363 3.3676,-11.61817 9.4293,-19.86875 6.0616,-8.25058 14.4806,-12.796818 8.5873,-4.546239 19.0268,-4.546239 11.9549,0 19.8688,4.377859 8.0822,4.20948 12.9652,10.60789 l -14.4806,19.531988 q -3.0309,-4.0411 -6.9036,-6.39841 -3.7043,-2.35731 -9.4292,-2.35731 -5.3882,0 -9.4293,2.86245 -3.8727,2.86244 -6.7351,7.91382 -2.6941,4.883 -4.0411,11.78654 -1.3471,6.73517 -1.3471,14.48061 0,7.74545 1.3471,14.48061 1.347,6.73517 4.0411,11.78655 2.8624,5.05137 6.9035,7.91382 4.0411,2.86245 9.4293,2.86245 5.3881,0 9.4292,-2.69407 4.0411,-2.69407 6.3984,-6.39841 l 14.9857,18.69009 z"
       />
      <path
         d="m 3424.0202,142.33289 q 0,14.14385 -3.1992,25.93039 -3.1992,11.61817 -9.0925,19.86875 -5.8933,8.25058 -14.4806,12.79682 -8.419,4.54623 -19.0269,4.54623 -10.6079,0 -19.1952,-4.54623 -8.4189,-4.54624 -14.3122,-12.79682 -5.8933,-8.25058 -9.0925,-19.86875 -3.1992,-11.78654 -3.1992,-25.93039 0,-14.14386 3.0308,-25.59364 3.1992,-11.61817 9.0925,-19.700369 5.8933,-8.25058 14.3122,-12.628439 8.5874,-4.546239 19.3636,-4.546239 10.6079,0 19.0269,4.546239 8.5873,4.377859 14.4806,12.628439 5.8933,8.082199 9.0925,19.700369 3.1992,11.44978 3.1992,25.59364 z m -27.6142,0 q 0,-7.74545 -1.1787,-14.31224 -1.1786,-6.73516 -3.5359,-11.61816 -2.189,-4.883 -5.5565,-7.57706 -3.3676,-2.86245 -7.9139,-2.86245 -4.5462,0 -8.0822,2.86245 -3.3675,2.69406 -5.7249,7.57706 -2.1889,4.883 -3.3675,11.61816 -1.0103,6.56679 -1.0103,14.31224 0,7.74544 1.0103,14.48061 1.1786,6.73516 3.3675,11.61816 2.3574,4.883 5.7249,7.74544 3.536,2.86245 8.0822,2.86245 4.5463,0 7.9139,-2.86245 3.3675,-2.86244 5.5565,-7.74544 2.3573,-4.883 3.5359,-11.61816 1.1787,-6.73517 1.1787,-14.48061 z"
       />
      <path
         d="m 3527.9796,202.27588 1.0102,-81.83229 h -0.6735 l -20.0371,81.83229 h -19.0269 l -19.3636,-81.83229 h -0.5051 l 0.8419,81.83229 h -24.415 V 83.063408 h 34.0126 l 19.1952,76.780912 h 0.6736 l 18.69,-76.780912 h 36.0332 V 202.27588 Z"
       />
    </g>
  </g>
</svg>
