<?xml version="1.0" encoding="UTF-8" standalone="no"?>
<!-- Created with Inkscape (http://www.inkscape.org/) -->

<svg
   xmlns:dc="http://purl.org/dc/elements/1.1/"
   xmlns:cc="http://creativecommons.org/ns#"
   xmlns:rdf="http://www.w3.org/1999/02/22-rdf-syntax-ns#"
   xmlns:svg="http://www.w3.org/2000/svg"
   xmlns="http://www.w3.org/2000/svg"
   xmlns:sodipodi="http://sodipodi.sourceforge.net/DTD/sodipodi-0.dtd"
   xmlns:inkscape="http://www.inkscape.org/namespaces/inkscape"
   width="1080px"
   height="720px"
   viewBox="0 0 1080 720"
   version="1.1"
   id="SVGRoot"
   inkscape:version="0.92.2 5c3e80d, 2017-08-06"
   sodipodi:docname="platinumgold.svg">
  <sodipodi:namedview
     id="base"
     pagecolor="#ffffff"
     bordercolor="#666666"
     borderopacity="1.0"
     inkscape:pageopacity="0.0"
     inkscape:pageshadow="2"
     inkscape:zoom="0.35"
     inkscape:cx="540"
     inkscape:cy="360"
     inkscape:document-units="px"
     inkscape:current-layer="layer1"
     showgrid="false"
     inkscape:window-width="1202"
     inkscape:window-height="571"
     inkscape:window-x="44"
     inkscape:window-y="0"
     inkscape:window-maximized="0" />
  <defs
     id="defs258" />
  <metadata
     id="metadata261">
    <rdf:RDF>
      <cc:Work
         rdf:about="">
        <dc:format>image/svg+xml</dc:format>
        <dc:type
           rdf:resource="http://purl.org/dc/dcmitype/StillImage" />
        <dc:title></dc:title>
      </cc:Work>
    </rdf:RDF>
  </metadata>
  <g
     id="layer1"
     inkscape:groupmode="layer"
     inkscape:label="Layer 1">
    <g
       aria-label="PLATINUM GOLD RECORDS UNLIMITED@GMAIL.COM"
       transform="scale(0.56326852,1.7753522)"
       style="font-style:normal;font-variant:normal;font-weight:bold;font-stretch:normal;font-size:64.69609833px;line-height:1.25;font-family:sans-serif;-inkscape-font-specification:'sans-serif Bold';letter-spacing:0px;word-spacing:0px;fill:#000000;fill-opacity:1;stroke:none;stroke-width:1.61740243"
       id="text3965">
      <path
         d="m 16.663741,13.098979 h 20.185941 q 9.003119,0 13.804782,4.011917 4.833254,3.980326 4.833254,11.372361 0,7.423624 -4.833254,11.43554 -4.801663,3.980327 -13.804782,3.980327 H 28.825849 V 60.262688 H 16.663741 Z m 12.162108,8.81358 v 13.172985 h 6.728647 q 3.538068,0 5.465051,-1.705854 1.926984,-1.737444 1.926984,-4.896433 0,-3.15899 -1.926984,-4.864844 -1.926983,-1.705854 -5.465051,-1.705854 z"
         style="stroke-width:1.61740243"
         id="path4082" />
      <path
         d="m 64.048579,13.098979 h 12.162108 v 37.97105 h 21.354767 v 9.192659 H 64.048579 Z"
         style="stroke-width:1.61740243"
         id="path4084" />
      <path
         d="m 133.86224,51.670237 h -19.01712 l -3.00104,8.592451 H 99.618796 L 117.08801,13.098979 h 14.49976 l 17.46921,47.163709 h -12.22529 z m -15.98449,-8.7504 h 12.92027 l -6.44434,-18.764396 z"
         style="stroke-width:1.61740243"
         id="path4086" />
      <path
         d="m 144.6028,13.098979 h 43.46769 v 9.192659 h -15.637 v 37.97105 H 160.27138 V 22.291638 H 144.6028 Z"
         style="stroke-width:1.61740243"
         id="path4088" />
      <path
         d="m 194.32529,13.098979 h 12.1621 v 47.163709 h -12.1621 z"
         style="stroke-width:1.61740243"
         id="path4090" />
      <path
         d="m 218.45997,13.098979 h 13.58366 l 17.15331,32.348049 V 13.098979 h 11.53031 V 60.262688 H 247.1436 L 229.99029,27.914639 v 32.348049 h -11.53032 z"
         style="stroke-width:1.61740243"
         id="path4092" />
      <path
         d="m 272.66823,13.098979 h 12.16211 v 28.272953 q 0,5.84413 1.89539,8.371322 1.92698,2.495601 6.2548,2.495601 4.3594,0 6.2548,-2.495601 1.92698,-2.527192 1.92698,-8.371322 V 13.098979 h 12.16211 v 28.272953 q 0,10.013996 -5.0228,14.910429 -5.02279,4.896434 -15.32109,4.896434 -10.26672,0 -15.28951,-4.896434 -5.02279,-4.896433 -5.02279,-14.910429 z"
         style="stroke-width:1.61740243"
         id="path4094" />
      <path
         d="m 325.23381,13.098979 h 15.47905 l 10.74056,25.240324 10.80374,-25.240324 h 15.44746 V 60.262688 H 366.2059 V 25.766526 l -10.86692,25.429863 h -7.70794 L 336.76412,25.766526 v 34.496162 h -11.53031 z"
         style="stroke-width:1.61740243"
         id="path4096" />
      <path
         d="m 454.56281,56.75621 q -4.54895,2.211292 -9.44538,3.316938 -4.89643,1.105647 -10.10877,1.105647 -11.78302,0 -18.66962,-6.570698 -6.8866,-6.602287 -6.8866,-17.879879 0,-11.403951 7.01296,-17.943058 7.01295,-6.539108 19.20665,-6.539108 4.7069,0 9.00312,0.884517 4.32782,0.884517 8.15019,2.621961 v 9.761277 q -3.94873,-2.242883 -7.86588,-3.348529 -3.88556,-1.105646 -7.8027,-1.105646 -7.26568,0 -11.21441,4.075096 -3.91715,4.043506 -3.91715,11.59349 0,7.486805 3.79079,11.561901 3.79078,4.075096 10.77215,4.075096 1.89539,0 3.50648,-0.221129 1.64267,-0.25272 2.93786,-0.758158 v -9.161069 h -7.42363 v -8.150192 h 18.95394 z"
         style="stroke-width:1.61740243"
         id="path4098" />
      <path
         d="m 486.78452,21.059632 q -5.55982,0 -8.62404,4.106686 -3.06422,4.106686 -3.06422,11.5619 0,7.423625 3.06422,11.530311 3.06422,4.106686 8.62404,4.106686 5.59141,0 8.65563,-4.106686 3.06422,-4.106686 3.06422,-11.530311 0,-7.455214 -3.06422,-11.5619 -3.06422,-4.106686 -8.65563,-4.106686 z m 0,-8.81358 q 11.37237,0 17.8167,6.507518 6.44434,6.507518 6.44434,17.974648 0,11.435541 -6.44434,17.943059 -6.44433,6.507518 -17.8167,6.507518 -11.34077,0 -17.81669,-6.507518 -6.44434,-6.507518 -6.44434,-17.943059 0,-11.46713 6.44434,-17.974648 6.47592,-6.507518 17.81669,-6.507518 z"
         style="stroke-width:1.61740243"
         id="path4100" />
      <path
         d="m 520.20662,13.098979 h 12.16211 v 37.97105 h 21.35476 v 9.192659 h -33.51687 z"
         style="stroke-width:1.61740243"
         id="path4102" />
      <path
         d="m 573.56193,22.291638 v 28.778391 h 4.35941 q 7.45521,0 11.37236,-3.696017 3.94874,-3.696017 3.94874,-10.740563 0,-7.012956 -3.91715,-10.677384 -3.91715,-3.664427 -11.40395,-3.664427 z m -12.16211,-9.192659 h 12.8255 q 10.74056,0 15.98449,1.547905 5.27551,1.516315 9.03471,5.180742 3.31693,3.190579 4.92802,7.360445 1.61108,4.169866 1.61108,9.445378 0,5.338691 -1.61108,9.540147 -1.61109,4.169866 -4.92802,7.360445 -3.79079,3.664427 -9.09789,5.212332 -5.30711,1.516315 -15.92131,1.516315 h -12.8255 z"
         style="stroke-width:1.61740243"
         id="path4104" />
      <path
         d="m 654.87432,34.011488 q 3.82238,0 5.46505,-1.421546 1.67427,-1.421545 1.67427,-4.675303 0,-3.222169 -1.67427,-4.612125 -1.64267,-1.389955 -5.46505,-1.389955 h -5.11756 v 12.098929 z m -5.11756,8.402911 V 60.262688 H 637.59465 V 13.098979 h 18.57486 q 9.31901,0 13.64683,3.1274 4.3594,3.127399 4.3594,9.887636 0,4.675304 -2.27447,7.676343 -2.24288,3.00104 -6.79183,4.422585 2.49561,0.568618 4.45418,2.590371 1.99016,1.990164 4.01192,6.06526 l 6.60228,13.394114 h -12.95185 l -5.74936,-11.71985 q -1.73745,-3.538068 -3.53807,-4.833254 -1.76903,-1.295185 -4.73848,-1.295185 z"
         style="stroke-width:1.61740243"
         id="path4106" />
      <path
         d="m 687.38029,13.098979 h 32.8219 v 9.192659 H 699.5424 v 8.78199 h 19.42779 v 9.192658 H 699.5424 v 10.803743 h 21.35477 v 9.192659 h -33.51688 z"
         style="stroke-width:1.61740243"
         id="path4108" />
      <path
         d="m 769.00862,57.672317 q -3.34853,1.737444 -6.98137,2.621961 -3.63284,0.884517 -7.58157,0.884517 -11.78303,0 -18.66963,-6.570698 -6.8866,-6.602287 -6.8866,-17.879879 0,-11.309181 6.8866,-17.879878 6.8866,-6.602288 18.66963,-6.602288 3.94873,0 7.58157,0.884517 3.63284,0.884517 6.98137,2.621961 v 9.761277 q -3.38012,-2.306062 -6.66547,-3.380119 -3.28535,-1.074056 -6.91819,-1.074056 -6.50751,0 -10.23512,4.169866 -3.72761,4.169865 -3.72761,11.49872 0,7.297265 3.72761,11.467131 3.72761,4.169866 10.23512,4.169866 3.63284,0 6.91819,-1.074057 3.28535,-1.074056 6.66547,-3.380118 z"
         style="stroke-width:1.61740243"
         id="path4110" />
      <path
         d="m 800.66166,21.059632 q -5.55982,0 -8.62404,4.106686 -3.06422,4.106686 -3.06422,11.5619 0,7.423625 3.06422,11.530311 3.06422,4.106686 8.62404,4.106686 5.59141,0 8.65563,-4.106686 3.06422,-4.106686 3.06422,-11.530311 0,-7.455214 -3.06422,-11.5619 -3.06422,-4.106686 -8.65563,-4.106686 z m 0,-8.81358 q 11.37236,0 17.8167,6.507518 6.44434,6.507518 6.44434,17.974648 0,11.435541 -6.44434,17.943059 -6.44434,6.507518 -17.8167,6.507518 -11.34077,0 -17.8167,-6.507518 -6.44434,-6.507518 -6.44434,-17.943059 0,-11.46713 6.44434,-17.974648 6.47593,-6.507518 17.8167,-6.507518 z"
         style="stroke-width:1.61740243"
         id="path4112" />
      <path
         d="m 851.36346,34.011488 q 3.82237,0 5.46505,-1.421546 1.67426,-1.421545 1.67426,-4.675303 0,-3.222169 -1.67426,-4.612125 -1.64268,-1.389955 -5.46505,-1.389955 h -5.11757 v 12.098929 z m -5.11757,8.402911 V 60.262688 H 834.08378 V 13.098979 h 18.57486 q 9.31902,0 13.64683,3.1274 4.35941,3.127399 4.35941,9.887636 0,4.675304 -2.27447,7.676343 -2.24289,3.00104 -6.79183,4.422585 2.4956,0.568618 4.45418,2.590371 1.99016,1.990164 4.01191,6.06526 l 6.60229,13.394114 H 863.7151 l -5.74936,-11.71985 q -1.73744,-3.538068 -3.53806,-4.833254 -1.76904,-1.295185 -4.73849,-1.295185 z"
         style="stroke-width:1.61740243"
         id="path4114" />
      <path
         d="m 896.03154,22.291638 v 28.778391 h 4.3594 q 7.45522,0 11.37236,-3.696017 3.94874,-3.696017 3.94874,-10.740563 0,-7.012956 -3.91715,-10.677384 -3.91714,-3.664427 -11.40395,-3.664427 z m -12.16211,-9.192659 h 12.8255 q 10.74056,0 15.98448,1.547905 5.27551,1.516315 9.03471,5.180742 3.31694,3.190579 4.92802,7.360445 1.61109,4.169866 1.61109,9.445378 0,5.338691 -1.61109,9.540147 -1.61108,4.169866 -4.92802,7.360445 -3.79079,3.664427 -9.09789,5.212332 -5.3071,1.516315 -15.9213,1.516315 h -12.8255 z"
         style="stroke-width:1.61740243"
         id="path4116" />
      <path
         d="m 970.39415,14.583704 v 9.982406 q -3.88556,-1.737444 -7.58158,-2.621961 -3.69601,-0.884517 -6.98136,-0.884517 -4.35941,0 -6.44434,1.200416 -2.08493,1.200416 -2.08493,3.727607 0,1.895394 1.38995,2.96945 1.42155,1.042466 5.11756,1.800624 l 5.18075,1.042466 q 7.86588,1.579495 11.18282,4.801664 3.31694,3.222169 3.31694,9.161068 0,7.802704 -4.64372,11.625081 -4.61212,3.790787 -14.12068,3.790787 -4.48576,0 -9.00312,-0.852928 -4.51735,-0.852927 -9.03471,-2.527191 V 47.531961 q 4.51736,2.400832 8.71881,3.632838 4.23305,1.200416 8.15019,1.200416 3.98033,0 6.09685,-1.326776 2.11653,-1.326775 2.11653,-3.790787 0,-2.211292 -1.45314,-3.411708 -1.42154,-1.200416 -5.71777,-2.148113 l -4.70689,-1.042466 q -7.07614,-1.516315 -10.36149,-4.833254 -3.25376,-3.316938 -3.25376,-8.939939 0,-7.044546 4.54895,-10.835333 4.54894,-3.790787 13.07821,-3.790787 3.88556,0 7.99225,0.600208 4.10668,0.568618 8.49768,1.737444 z"
         style="stroke-width:1.61740243"
         id="path4118" />
      <path
         d="m 1006.691,13.098979 h 12.1621 v 28.272953 q 0,5.84413 1.8954,8.371322 1.9269,2.495601 6.2548,2.495601 4.3594,0 6.2548,-2.495601 1.9269,-2.527192 1.9269,-8.371322 V 13.098979 h 12.1622 v 28.272953 q 0,10.013996 -5.0228,14.910429 -5.0228,4.896434 -15.3211,4.896434 -10.2668,0 -15.2895,-4.896434 -5.0228,-4.896433 -5.0228,-14.910429 z"
         style="stroke-width:1.61740243"
         id="path4120" />
      <path
         d="m 1059.2565,13.098979 h 13.5837 l 17.1533,32.348049 V 13.098979 h 11.5303 v 47.163709 h -13.5837 l -17.1533,-32.348049 v 32.348049 h -11.5303 z"
         style="stroke-width:1.61740243"
         id="path4122" />
      <path
         d="m 1113.4648,13.098979 h 12.1621 v 37.97105 h 21.3547 v 9.192659 h -33.5168 z"
         style="stroke-width:1.61740243"
         id="path4124" />
      <path
         d="m 1154.658,13.098979 h 12.1621 v 47.163709 h -12.1621 z"
         style="stroke-width:1.61740243"
         id="path4126" />
      <path
         d="m 1178.7926,13.098979 h 15.4791 l 10.7406,25.240324 10.8037,-25.240324 h 15.4475 v 47.163709 h -11.4988 V 25.766526 l -10.8669,25.429863 h -7.7079 L 1190.323,25.766526 v 34.496162 h -11.5304 z"
         style="stroke-width:1.61740243"
         id="path4128" />
      <path
         d="m 1243.236,13.098979 h 12.1621 v 47.163709 h -12.1621 z"
         style="stroke-width:1.61740243"
         id="path4130" />
      <path
         d="m 1261.7478,13.098979 h 43.4677 v 9.192659 h -15.637 v 37.97105 h -12.1621 v -37.97105 h -15.6686 z"
         style="stroke-width:1.61740243"
         id="path4132" />
      <path
         d="m 1311.4703,13.098979 h 32.8219 v 9.192659 h -20.6598 v 8.78199 h 19.4278 v 9.192658 h -19.4278 v 10.803743 h 21.3547 v 9.192659 h -33.5168 z"
         style="stroke-width:1.61740243"
         id="path4134" />
      <path
         d="m 1367.8582,22.291638 v 28.778391 h 4.3594 q 7.4552,0 11.3724,-3.696017 3.9487,-3.696017 3.9487,-10.740563 0,-7.012956 -3.9171,-10.677384 -3.9172,-3.664427 -11.404,-3.664427 z m -12.1621,-9.192659 h 12.8255 q 10.7405,0 15.9845,1.547905 5.2755,1.516315 9.0347,5.180742 3.3169,3.190579 4.928,7.360445 1.6111,4.169866 1.6111,9.445378 0,5.338691 -1.6111,9.540147 -1.6111,4.169866 -4.928,7.360445 -3.7908,3.664427 -9.0979,5.212332 -5.3071,1.516315 -15.9213,1.516315 h -12.8255 z"
         style="stroke-width:1.61740243"
         id="path4136" />
      <path
         d="m 1429.7111,43.235736 q 0,3.885557 1.6427,6.128439 1.6743,2.242882 4.5174,2.242882 2.8115,0 4.4857,-2.242882 1.6743,-2.274472 1.6743,-6.128439 0,-3.822377 -1.7058,-6.033669 -1.6743,-2.242883 -4.5174,-2.242883 -2.7799,0 -4.4542,2.242883 -1.6427,2.211292 -1.6427,6.033669 z m 12.9519,9.508557 q -0.9477,2.242883 -3.0642,3.506478 -2.0849,1.232006 -4.8964,1.232006 -5.4335,0 -8.8452,-3.917146 -3.3801,-3.948737 -3.3801,-10.266715 0,-6.317979 3.4117,-10.266715 3.4117,-3.948736 8.8136,-3.948736 2.8115,0 4.8964,1.263595 2.1165,1.263596 3.0642,3.506478 v -4.138276 h 6.6023 v 21.891795 q 3.9171,-0.600208 6.16,-3.759197 2.2429,-3.190579 2.2429,-8.150192 0,-3.158989 -0.9161,-5.90731 -0.9161,-2.77991 -2.7799,-5.085972 -3.0011,-3.853967 -7.5184,-5.9389 -4.4858,-2.084933 -9.7297,-2.084933 -3.6644,0 -7.013,0.979287 -3.3485,0.947697 -6.1916,2.8115 -4.6753,3.09581 -7.2972,8.023833 -2.5904,4.896433 -2.5904,10.614203 0,4.706894 1.6743,8.84517 1.7058,4.106686 4.8964,7.265675 3.159,3.09581 7.2341,4.706894 4.1067,1.642674 8.7504,1.642674 3.9803,0 7.9606,-1.484724 3.9804,-1.484725 6.7919,-4.011917 l 3.3801,5.117563 q -3.9488,3.064219 -8.6241,4.675304 -4.6437,1.642674 -9.4453,1.642674 -5.8442,0 -11.0249,-2.084933 -5.1808,-2.053343 -9.2243,-6.002079 -4.0435,-3.948737 -6.16,-9.129479 -2.1165,-5.212332 -2.1165,-11.182822 0,-5.74936 2.1481,-10.961692 2.1481,-5.212332 6.1284,-9.161069 3.9804,-3.917146 9.2559,-6.065259 5.3071,-2.148112 10.9933,-2.148112 7.0761,0 12.857,2.71673 5.781,2.685141 9.6665,7.771114 2.3693,3.095809 3.5697,6.728647 1.232,3.601247 1.232,7.581574 0,8.56086 -5.1491,13.299344 -5.1492,4.738484 -14.5314,4.738484 h -1.232 z"
         style="stroke-width:1.61740243"
         id="path4138" />
      <path
         d="m 1516.4886,56.75621 q -4.5489,2.211292 -9.4453,3.316938 -4.8965,1.105647 -10.1088,1.105647 -11.783,0 -18.6696,-6.570698 -6.8866,-6.602287 -6.8866,-17.879879 0,-11.403951 7.0129,-17.943058 7.013,-6.539108 19.2067,-6.539108 4.7069,0 9.0031,0.884517 4.3278,0.884517 8.1502,2.621961 v 9.761277 q -3.9487,-2.242883 -7.8659,-3.348529 -3.8855,-1.105646 -7.8027,-1.105646 -7.2657,0 -11.2144,4.075096 -3.9171,4.043506 -3.9171,11.59349 0,7.486805 3.7907,11.561901 3.7908,4.075096 10.7722,4.075096 1.8954,0 3.5065,-0.221129 1.6427,-0.25272 2.9378,-0.758158 v -9.161069 h -7.4236 v -8.150192 h 18.9539 z"
         style="stroke-width:1.61740243"
         id="path4140" />
      <path
         d="m 1527.1661,13.098979 h 15.479 l 10.7406,25.240324 10.8037,-25.240324 h 15.4475 v 47.163709 h -11.4988 V 25.766526 l -10.8669,25.429863 h -7.7079 l -10.8669,-25.429863 v 34.496162 h -11.5303 z"
         style="stroke-width:1.61740243"
         id="path4142" />
      <path
         d="m 1620.2299,51.670237 h -19.0172 l -3.001,8.592451 h -12.2253 l 17.4692,-47.163709 h 14.4998 l 17.4692,47.163709 h -12.2253 z m -15.9845,-8.7504 h 12.9202 l -6.4443,-18.764396 z"
         style="stroke-width:1.61740243"
         id="path4144" />
      <path
         d="m 1641.6477,13.098979 h 12.1622 v 47.163709 h -12.1622 z"
         style="stroke-width:1.61740243"
         id="path4146" />
      <path
         d="m 1665.7825,13.098979 h 12.1621 v 37.97105 h 21.3548 v 9.192659 h -33.5169 z"
         style="stroke-width:1.61740243"
         id="path4148" />
      <path
         d="m 1707.639,48.0374 h 11.3724 v 12.225288 h -11.3724 z"
         style="stroke-width:1.61740243"
         id="path4150" />
      <path
         d="m 1769.0182,57.672317 q -3.3485,1.737444 -6.9814,2.621961 -3.6328,0.884517 -7.5815,0.884517 -11.7831,0 -18.6697,-6.570698 -6.8866,-6.602287 -6.8866,-17.879879 0,-11.309181 6.8866,-17.879878 6.8866,-6.602288 18.6697,-6.602288 3.9487,0 7.5815,0.884517 3.6329,0.884517 6.9814,2.621961 v 9.761277 q -3.3801,-2.306062 -6.6655,-3.380119 -3.2853,-1.074056 -6.9182,-1.074056 -6.5075,0 -10.2351,4.169866 -3.7276,4.169865 -3.7276,11.49872 0,7.297265 3.7276,11.467131 3.7276,4.169866 10.2351,4.169866 3.6329,0 6.9182,-1.074057 3.2854,-1.074056 6.6655,-3.380118 z"
         style="stroke-width:1.61740243"
         id="path4152" />
      <path
         d="m 1800.6713,21.059632 q -5.5598,0 -8.624,4.106686 -3.0643,4.106686 -3.0643,11.5619 0,7.423625 3.0643,11.530311 3.0642,4.106686 8.624,4.106686 5.5914,0 8.6556,-4.106686 3.0643,-4.106686 3.0643,-11.530311 0,-7.455214 -3.0643,-11.5619 -3.0642,-4.106686 -8.6556,-4.106686 z m 0,-8.81358 q 11.3724,0 17.8167,6.507518 6.4443,6.507518 6.4443,17.974648 0,11.435541 -6.4443,17.943059 -6.4443,6.507518 -17.8167,6.507518 -11.3408,0 -17.8167,-6.507518 -6.4443,-6.507518 -6.4443,-17.943059 0,-11.46713 6.4443,-17.974648 6.4759,-6.507518 17.8167,-6.507518 z"
         style="stroke-width:1.61740243"
         id="path4154" />
      <path
         d="m 1834.0934,13.098979 h 15.4791 l 10.7405,25.240324 10.8038,-25.240324 h 15.4474 v 47.163709 h -11.4987 V 25.766526 l -10.8669,25.429863 h -7.7079 l -10.867,-25.429863 v 34.496162 h -11.5303 z"
         style="stroke-width:1.61740243"
         id="path4156" />
    </g>
    <g
       aria-label="PLATINUM GOLD RECORDS UNLIMITED@GMAIL.COM"
       transform="scale(0.47511939,2.1047342)"
       style="font-style:normal;font-variant:normal;font-weight:bold;font-stretch:normal;font-size:76.80059052px;line-height:1.25;font-family:sans-serif;-inkscape-font-specification:'sans-serif Bold';letter-spacing:0px;word-spacing:0px;fill:#000000;fill-opacity:1;stroke:none;stroke-width:1.92001486"
       id="text4219">
      <path
         d="m 19.755371,56.139076 h 23.962684 q 10.687582,0 16.387626,4.762537 5.737544,4.725036 5.737544,13.500103 0,8.812568 -5.737544,13.575105 -5.700044,4.725036 -16.387626,4.725036 H 34.192982 V 112.12701 H 19.755371 Z m 14.437611,10.46258 v 15.637621 h 7.987561 q 4.200032,0 6.48755,-2.025016 2.287518,-2.062516 2.287518,-5.812545 0,-3.750028 -2.287518,-5.775044 -2.287518,-2.025016 -6.48755,-2.025016 z"
         style="stroke-width:1.92001486"
         id="path4229" />
      <path
         d="m 76.005802,56.139076 h 14.437611 v 45.075344 h 25.350197 v 10.91259 H 76.005802 Z"
         style="stroke-width:1.92001486"
         id="path4231" />
      <path
         d="m 158.88143,101.92693 h -22.57517 l -3.56253,10.20008 h -14.51261 l 20.73766,-55.987934 h 17.21263 l 20.73766,55.987934 H 162.40646 Z M 139.90629,91.539348 h 15.33762 l -7.65006,-22.275171 z"
         style="stroke-width:1.92001486"
         id="path4233" />
      <path
         d="m 171.63153,56.139076 h 51.60039 V 67.05166 h -18.56264 v 45.07535 H 190.23167 V 67.05166 h -18.60014 z"
         style="stroke-width:1.92001486"
         id="path4235" />
      <path
         d="m 230.65698,56.139076 h 14.43761 v 55.987934 h -14.43761 z"
         style="stroke-width:1.92001486"
         id="path4237" />
      <path
         d="m 259.3072,56.139076 h 16.12513 l 20.36266,38.400295 V 56.139076 h 13.6876 V 112.12701 H 293.35747 L 272.99481,73.726711 V 112.12701 H 259.3072 Z"
         style="stroke-width:1.92001486"
         id="path4239" />
      <path
         d="m 323.65771,56.139076 h 14.43762 v 33.562758 q 0,6.937553 2.25001,9.937577 2.28752,2.962519 7.42506,2.962519 5.17504,0 7.42506,-2.962519 2.28751,-3.000024 2.28751,-9.937577 V 56.139076 h 14.43762 v 33.562758 q 0,11.887596 -5.96255,17.700136 -5.96255,5.81254 -18.18764,5.81254 -12.18759,0 -18.15014,-5.81254 -5.96255,-5.81254 -5.96255,-17.700136 z"
         style="stroke-width:1.92001486"
         id="path4241" />
      <path
         d="m 386.0582,56.139076 h 18.37514 l 12.7501,29.96273 12.82509,-29.96273 h 18.33765 V 112.12701 H 434.69607 V 71.176692 l -12.9001,30.187728 H 412.6459 L 399.7458,71.176692 v 40.950318 h -13.6876 z"
         style="stroke-width:1.92001486"
         id="path4243" />
      <path
         d="m 539.58436,107.96447 q -5.40004,2.62502 -11.21259,3.93753 -5.81254,1.31251 -12.00009,1.31251 -13.98761,0 -22.16267,-7.80006 -8.17506,-7.837555 -8.17506,-21.225158 0,-13.537604 8.32506,-21.300164 8.32507,-7.76256 22.80018,-7.76256 5.58754,0 10.68758,1.050008 5.13754,1.050008 9.67507,3.112524 v 11.587589 q -4.68753,-2.66252 -9.33757,-3.97503 -4.61253,-1.31251 -9.26257,-1.31251 -8.62507,0 -13.3126,4.837537 -4.65004,4.800037 -4.65004,13.762606 0,8.887568 4.50004,13.725105 4.50003,4.837533 12.78759,4.837533 2.25002,0 4.16254,-0.2625 1.95001,-0.3 3.48752,-0.9 V 90.714342 h -8.81256 v -9.675075 h 22.50017 z"
         style="stroke-width:1.92001486"
         id="path4245" />
      <path
         d="m 577.83466,65.589149 q -6.60005,0 -10.23758,4.875037 -3.63753,4.875038 -3.63753,13.725106 0,8.812567 3.63753,13.687605 3.63753,4.875033 10.23758,4.875033 6.63755,0 10.27508,-4.875033 3.63752,-4.875038 3.63752,-13.687605 0,-8.850068 -3.63752,-13.725106 -3.63753,-4.875037 -10.27508,-4.875037 z m 0,-10.462581 q 13.5001,0 21.15016,7.72506 7.65006,7.725059 7.65006,21.337664 0,13.575104 -7.65006,21.300168 -7.65006,7.72505 -21.15016,7.72505 -13.46261,0 -21.15017,-7.72505 -7.65005,-7.725064 -7.65005,-21.300168 0,-13.612605 7.65005,-21.337664 7.68756,-7.72506 21.15017,-7.72506 z"
         style="stroke-width:1.92001486"
         id="path4247" />
      <path
         d="m 617.50995,56.139076 h 14.43761 v 45.075344 h 25.35019 v 10.91259 h -39.7878 z"
         style="stroke-width:1.92001486"
         id="path4249" />
      <path
         d="m 680.84795,67.05166 v 34.16276 h 5.17504 q 8.85007,0 13.5001,-4.387531 4.68754,-4.387534 4.68754,-12.750098 0,-8.325064 -4.65004,-12.675098 -4.65003,-4.350033 -13.5376,-4.350033 z M 666.41034,56.139076 h 15.22512 q 12.75009,0 18.97514,1.837514 6.26255,1.800014 10.72508,6.150047 3.93753,3.78753 5.85005,8.737568 1.91251,4.950038 1.91251,11.212586 0,6.337549 -1.91251,11.325087 -1.91252,4.950042 -5.85005,8.737572 -4.50003,4.35003 -10.80008,6.18754 -6.30005,1.80002 -18.90014,1.80002 h -15.22512 z"
         style="stroke-width:1.92001486"
         id="path4251" />
      <path
         d="m 777.37368,80.964267 q 4.53754,0 6.48755,-1.687513 1.98752,-1.687513 1.98752,-5.550043 0,-3.825029 -1.98752,-5.475042 -1.95001,-1.650013 -6.48755,-1.650013 h -6.07505 v 14.362611 z m -6.07505,9.975077 V 112.12701 H 756.86102 V 56.139076 h 22.05017 q 11.06259,0 16.20013,3.712529 5.17504,3.712528 5.17504,11.73759 0,5.550043 -2.70002,9.11257 -2.66252,3.562527 -8.06257,5.25004 2.96253,0.675005 5.28754,3.075024 2.36252,2.362518 4.76254,7.200055 l 7.83756,15.900126 H 792.03629 L 785.21124,98.2144 q -2.06252,-4.200033 -4.20003,-5.737545 -2.10002,-1.537511 -5.62504,-1.537511 z"
         style="stroke-width:1.92001486"
         id="path4253" />
      <path
         d="m 815.96149,56.139076 h 38.9628 V 67.05166 H 830.3991 v 10.42508 h 23.06267 V 88.389324 H 830.3991 v 12.825096 h 25.35019 v 10.91259 h -39.7878 z"
         style="stroke-width:1.92001486"
         id="path4255" />
      <path
         d="m 912.86226,109.05198 q -3.97504,2.06252 -8.28757,3.11253 -4.31253,1.05 -9.00007,1.05 -13.98761,0 -22.16267,-7.80006 -8.17506,-7.837555 -8.17506,-21.225158 0,-13.425104 8.17506,-21.225163 8.17506,-7.837561 22.16267,-7.837561 4.68754,0 9.00007,1.050008 4.31253,1.050008 8.28757,3.112524 v 11.587589 q -4.01254,-2.737521 -7.91257,-4.01253 -3.90003,-1.27501 -8.21256,-1.27501 -7.72506,0 -12.15009,4.950038 -4.42504,4.950038 -4.42504,13.650105 0,8.662566 4.42504,13.612604 4.42503,4.950034 12.15009,4.950034 4.31253,0 8.21256,-1.27501 3.90003,-1.27501 7.91257,-4.012526 z"
         style="stroke-width:1.92001486"
         id="path4257" />
      <path
         d="m 950.4375,65.589149 q -6.60005,0 -10.23758,4.875037 -3.63753,4.875038 -3.63753,13.725106 0,8.812567 3.63753,13.687605 3.63753,4.875033 10.23758,4.875033 6.63755,0 10.27508,-4.875033 3.63753,-4.875038 3.63753,-13.687605 0,-8.850068 -3.63753,-13.725106 -3.63753,-4.875037 -10.27508,-4.875037 z m 0,-10.462581 q 13.5001,0 21.15016,7.72506 7.65006,7.725059 7.65006,21.337664 0,13.575104 -7.65006,21.300168 -7.65006,7.72505 -21.15016,7.72505 -13.4626,0 -21.15016,-7.72505 -7.65006,-7.725064 -7.65006,-21.300168 0,-13.612605 7.65006,-21.337664 7.68756,-7.72506 21.15016,-7.72506 z"
         style="stroke-width:1.92001486"
         id="path4259" />
      <path
         d="m 1010.6255,80.964267 q 4.5375,0 6.4876,-1.687513 1.9875,-1.687513 1.9875,-5.550043 0,-3.825029 -1.9875,-5.475042 -1.9501,-1.650013 -6.4876,-1.650013 h -6.075 v 14.362611 z m -6.075,9.975077 V 112.12701 H 990.11285 V 56.139076 h 22.05015 q 11.0626,0 16.2001,3.712529 5.1751,3.712528 5.1751,11.73759 0,5.550043 -2.7,9.11257 -2.6626,3.562527 -8.0626,5.25004 2.9625,0.675005 5.2875,3.075024 2.3626,2.362518 4.7626,7.200055 l 7.8375,15.900126 h -15.3751 l -6.825,-13.91261 q -2.0625,-4.200033 -4.2001,-5.737545 -2.1,-1.537511 -5.625,-1.537511 z"
         style="stroke-width:1.92001486"
         id="path4261" />
      <path
         d="m 1063.6509,67.05166 v 34.16276 h 5.175 q 8.8501,0 13.5001,-4.387531 4.6875,-4.387534 4.6875,-12.750098 0,-8.325064 -4.65,-12.675098 -4.65,-4.350033 -13.5376,-4.350033 z m -14.4376,-10.912584 h 15.2251 q 12.7501,0 18.9751,1.837514 6.2626,1.800014 10.7251,6.150047 3.9375,3.78753 5.85,8.737568 1.9126,4.950038 1.9126,11.212586 0,6.337549 -1.9126,11.325087 -1.9125,4.950042 -5.85,8.737572 -4.5,4.35003 -10.8001,6.18754 -6.3,1.80002 -18.9001,1.80002 h -15.2251 z"
         style="stroke-width:1.92001486"
         id="path4263" />
      <path
         d="m 1151.9265,57.90159 v 11.850091 q -4.6125,-2.062516 -9,-3.112524 -4.3876,-1.050008 -8.2876,-1.050008 -5.175,0 -7.65,1.425011 -2.4751,1.425011 -2.4751,4.425034 0,2.250017 1.65,3.525027 1.6876,1.237509 6.0751,2.137516 l 6.15,1.23751 q 9.3376,1.875014 13.2751,5.700044 3.9376,3.825029 3.9376,10.875083 0,9.262576 -5.5126,13.800106 -5.475,4.50003 -16.7626,4.50003 -5.325,0 -10.6876,-1.0125 -5.3625,-1.01251 -10.7251,-3.00003 V 97.01439 q 5.3626,2.850022 10.3501,4.31253 5.0251,1.42501 9.6751,1.42501 4.725,0 7.2375,-1.57501 2.5126,-1.57501 2.5126,-4.500032 0,-2.62502 -1.725,-4.050031 -1.6876,-1.425011 -6.7876,-2.55002 l -5.5875,-1.23751 q -8.4001,-1.800013 -12.3001,-5.737544 -3.8626,-3.93753 -3.8626,-10.612581 0,-8.362565 5.4001,-12.862599 5.4,-4.500035 15.5251,-4.500035 4.6125,0 9.4876,0.712506 4.875,0.675005 10.0875,2.062516 z"
         style="stroke-width:1.92001486"
         id="path4265" />
      <path
         d="m 1195.0144,56.139076 h 14.4376 v 33.562758 q 0,6.937553 2.25,9.937577 2.2875,2.962519 7.4251,2.962519 5.175,0 7.425,-2.962519 2.2876,-3.000024 2.2876,-9.937577 V 56.139076 h 14.4376 v 33.562758 q 0,11.887596 -5.9626,17.700136 -5.9625,5.81254 -18.1876,5.81254 -12.1876,0 -18.1502,-5.81254 -5.9625,-5.81254 -5.9625,-17.700136 z"
         style="stroke-width:1.92001486"
         id="path4267" />
      <path
         d="m 1257.4149,56.139076 h 16.1251 l 20.3627,38.400295 V 56.139076 h 13.6876 v 55.987934 h -16.1251 l -20.3627,-38.400299 v 38.400299 h -13.6876 z"
         style="stroke-width:1.92001486"
         id="path4269" />
      <path
         d="m 1321.7654,56.139076 h 14.4376 v 45.075344 h 25.3502 v 10.91259 h -39.7878 z"
         style="stroke-width:1.92001486"
         id="path4271" />
      <path
         d="m 1370.6658,56.139076 h 14.4376 v 55.987934 h -14.4376 z"
         style="stroke-width:1.92001486"
         id="path4273" />
      <path
         d="m 1399.3159,56.139076 h 18.3752 l 12.7501,29.96273 12.8251,-29.96273 h 18.3376 v 55.987934 h -13.6501 V 71.176692 l -12.9001,30.187728 h -9.1501 l -12.9001,-30.187728 v 40.950318 h -13.6876 z"
         style="stroke-width:1.92001486"
         id="path4275" />
      <path
         d="m 1475.8165,56.139076 h 14.4376 v 55.987934 h -14.4376 z"
         style="stroke-width:1.92001486"
         id="path4277" />
      <path
         d="m 1497.7917,56.139076 h 51.6004 V 67.05166 h -18.5626 v 45.07535 h -14.4376 V 67.05166 h -18.6002 z"
         style="stroke-width:1.92001486"
         id="path4279" />
      <path
         d="m 1556.8171,56.139076 h 38.9628 V 67.05166 h -24.5252 v 10.42508 h 23.0627 v 10.912584 h -23.0627 v 12.825096 h 25.3502 v 10.91259 h -39.7878 z"
         style="stroke-width:1.92001486"
         id="path4281" />
      <path
         d="m 1623.7552,67.05166 v 34.16276 h 5.1751 q 8.85,0 13.5001,-4.387531 4.6875,-4.387534 4.6875,-12.750098 0,-8.325064 -4.65,-12.675098 -4.6501,-4.350033 -13.5376,-4.350033 z m -14.4376,-10.912584 h 15.2251 q 12.7501,0 18.9752,1.837514 6.2625,1.800014 10.7251,6.150047 3.9375,3.78753 5.85,8.737568 1.9125,4.950038 1.9125,11.212586 0,6.337549 -1.9125,11.325087 -1.9125,4.950042 -5.85,8.737572 -4.5001,4.35003 -10.8001,6.18754 -6.3001,1.80002 -18.9002,1.80002 h -15.2251 z"
         style="stroke-width:1.92001486"
         id="path4283" />
      <path
         d="m 1697.1808,91.914351 q 0,4.612536 1.95,7.275056 1.9875,2.662523 5.3626,2.662523 3.3375,0 5.325,-2.662523 1.9875,-2.700021 1.9875,-7.275056 0,-4.537535 -2.025,-7.162555 -1.9875,-2.66252 -5.3625,-2.66252 -3.3001,0 -5.2876,2.66252 -1.95,2.62502 -1.95,7.162555 z m 15.3751,11.287589 q -1.125,2.66252 -3.6375,4.16253 -2.475,1.46251 -5.8126,1.46251 -6.45,0 -10.5,-4.65003 -4.0126,-4.687541 -4.0126,-12.187598 0,-7.500058 4.0501,-12.187594 4.05,-4.687536 10.4625,-4.687536 3.3376,0 5.8126,1.500011 2.5125,1.500012 3.6375,4.162532 v -4.912537 h 7.8376 v 25.987702 q 4.65,-0.71251 7.3125,-4.462537 2.6626,-3.787529 2.6626,-9.675074 0,-3.750029 -1.0876,-7.012554 -1.0875,-3.300025 -3.3,-6.037547 -3.5625,-4.575035 -8.925,-7.050054 -5.3251,-2.475019 -11.5501,-2.475019 -4.3501,0 -8.3251,1.162509 -3.975,1.125009 -7.3501,3.337526 -5.55,3.675028 -8.6625,9.525073 -3.075,5.812545 -3.075,12.600097 0,5.587543 1.9875,10.50008 2.025,4.87504 5.8125,8.62507 3.75,3.67503 8.5876,5.58754 4.875,1.95001 10.3876,1.95001 4.725,0 9.45,-1.76251 4.7251,-1.76251 8.0626,-4.76254 l 4.0125,6.07505 q -4.6875,3.63753 -10.2376,5.55004 -5.5125,1.95002 -11.2125,1.95002 -6.9376,0 -13.0876,-2.47502 -6.1501,-2.43752 -10.9501,-7.12505 -4.8001,-4.68754 -7.3126,-10.83759 -2.5125,-6.187546 -2.5125,-13.2751 0,-6.825053 2.55,-13.0126 2.55,-6.187548 7.2751,-10.875084 4.725,-4.650035 10.9876,-7.200055 6.3,-2.55002 13.0501,-2.55002 8.4,0 15.2626,3.225025 6.8625,3.187525 11.4751,9.225071 2.8125,3.675028 4.2375,7.987561 1.4625,4.275033 1.4625,9.00007 0,10.162578 -6.1125,15.787622 -6.1126,5.62504 -17.2502,5.62504 h -1.4625 z"
         style="stroke-width:1.92001486"
         id="path4285" />
      <path
         d="m 1800.194,107.96447 q -5.4,2.62502 -11.2125,3.93753 -5.8126,1.31251 -12.0001,1.31251 -13.9876,0 -22.1627,-7.80006 -8.1751,-7.837555 -8.1751,-21.225158 0,-13.537604 8.3251,-21.300164 8.3251,-7.76256 22.8002,-7.76256 5.5875,0 10.6875,1.050008 5.1376,1.050008 9.6751,3.112524 v 11.587589 q -4.6875,-2.66252 -9.3375,-3.97503 -4.6126,-1.31251 -9.2626,-1.31251 -8.6251,0 -13.3126,4.837537 -4.6501,4.800037 -4.6501,13.762606 0,8.887568 4.5001,13.725105 4.5,4.837533 12.7876,4.837533 2.25,0 4.1625,-0.2625 1.95,-0.3 3.4875,-0.9 V 90.714342 h -8.8125 v -9.675075 h 22.5001 z"
         style="stroke-width:1.92001486"
         id="path4287" />
      <path
         d="m 1812.8691,56.139076 h 18.3752 l 12.7501,29.96273 12.8251,-29.96273 h 18.3376 V 112.12701 H 1861.507 V 71.176692 l -12.9001,30.187728 h -9.1501 l -12.9001,-30.187728 v 40.950318 h -13.6876 z"
         style="stroke-width:1.92001486"
         id="path4289" />
      <path
         d="m 1923.345,101.92693 h -22.5752 l -3.5625,10.20008 h -14.5126 l 20.7377,-55.987934 h 17.2126 l 20.7377,55.987934 H 1926.87 Z m -18.9751,-10.387582 h 15.3376 l -7.6501,-22.275171 z"
         style="stroke-width:1.92001486"
         id="path4291" />
      <path
         d="m 1948.7701,56.139076 h 14.4377 v 55.987934 h -14.4377 z"
         style="stroke-width:1.92001486"
         id="path4293" />
      <path
         d="m 1977.4204,56.139076 h 14.4376 v 45.075344 h 25.3502 v 10.91259 h -39.7878 z"
         style="stroke-width:1.92001486"
         id="path4295" />
      <path
         d="m 2027.1083,97.614395 h 13.5001 v 14.512615 h -13.5001 z"
         style="stroke-width:1.92001486"
         id="path4297" />
      <path
         d="m 2099.9714,109.05198 q -3.975,2.06252 -8.2876,3.11253 -4.3125,1.05 -9,1.05 -13.9877,0 -22.1627,-7.80006 -8.1751,-7.837555 -8.1751,-21.225158 0,-13.425104 8.1751,-21.225163 8.175,-7.837561 22.1627,-7.837561 4.6875,0 9,1.050008 4.3126,1.050008 8.2876,3.112524 v 11.587589 q -4.0125,-2.737521 -7.9126,-4.01253 -3.9,-1.27501 -8.2125,-1.27501 -7.7251,0 -12.1501,4.950038 -4.4251,4.950038 -4.4251,13.650105 0,8.662566 4.4251,13.612604 4.425,4.950034 12.1501,4.950034 4.3125,0 8.2125,-1.27501 3.9001,-1.27501 7.9126,-4.012526 z"
         style="stroke-width:1.92001486"
         id="path4299" />
      <path
         d="m 2137.5466,65.589149 q -6.6,0 -10.2375,4.875037 -3.6376,4.875038 -3.6376,13.725106 0,8.812567 3.6376,13.687605 3.6375,4.875033 10.2375,4.875033 6.6376,0 10.2751,-4.875033 3.6375,-4.875038 3.6375,-13.687605 0,-8.850068 -3.6375,-13.725106 -3.6375,-4.875037 -10.2751,-4.875037 z m 0,-10.462581 q 13.5001,0 21.1502,7.72506 7.6501,7.725059 7.6501,21.337664 0,13.575104 -7.6501,21.300168 -7.6501,7.72505 -21.1502,7.72505 -13.4626,0 -21.1501,-7.72505 -7.6501,-7.725064 -7.6501,-21.300168 0,-13.612605 7.6501,-21.337664 7.6875,-7.72506 21.1501,-7.72506 z"
         style="stroke-width:1.92001486"
         id="path4301" />
      <path
         d="m 2177.2219,56.139076 h 18.3752 l 12.7501,29.96273 12.8251,-29.96273 h 18.3376 v 55.987934 h -13.6501 V 71.176692 l -12.9001,30.187728 h -9.1501 l -12.9001,-30.187728 v 40.950318 h -13.6876 z"
         style="stroke-width:1.92001486"
         id="path4303" />
    </g>
    <g
       aria-label="PLATINUM GOLD RECORDS UNLIMITED@GMAIL.COM"
       transform="scale(0.37655278,2.6556702)"
       style="font-style:normal;font-variant:normal;font-weight:bold;font-stretch:normal;font-size:97.27747345px;line-height:1.25;font-family:sans-serif;-inkscape-font-specification:'sans-serif Bold';letter-spacing:0px;word-spacing:0px;fill:#000000;fill-opacity:1;stroke:none;stroke-width:2.43193698"
       id="text4223">
      <path
         d="m 24.926545,92.310737 h 30.351711 q 13.537149,0 20.756961,6.032343 7.267311,5.98484 7.267311,17.09956 0,11.16221 -7.267311,17.19455 -7.219812,5.98484 -20.756961,5.98484 H 43.21357 v 24.60436 H 24.926545 Z M 43.21357,105.56289 v 19.80699 h 10.117237 q 5.319862,0 8.217286,-2.56494 2.897425,-2.61243 2.897425,-7.3623 0,-4.74988 -2.897425,-7.31481 -2.897424,-2.56494 -8.217286,-2.56494 z"
         style="stroke-width:2.43193698"
         id="path4306" />
      <path
         d="m 96.174691,92.310737 h 18.287029 v 57.093513 h 32.10916 v 13.82214 H 96.174691 Z"
         style="stroke-width:2.43193698"
         id="path4308" />
      <path
         d="m 201.14697,150.30673 h -28.59426 l -4.51238,12.91966 H 149.6583 l 26.26682,-70.915653 h 21.80193 l 26.26682,70.915653 h -18.38202 z m -24.03438,-13.15716 h 19.427 l -9.68975,-28.21427 z"
         style="stroke-width:2.43193698"
         id="path4310" />
      <path
         d="m 217.29655,92.310737 h 65.3583 v 13.822143 h -23.51189 v 57.09351 h -18.28702 v -57.09351 h -23.55939 z"
         style="stroke-width:2.43193698"
         id="path4312" />
      <path
         d="m 292.0596,92.310737 h 18.28703 V 163.22639 H 292.0596 Z"
         style="stroke-width:2.43193698"
         id="path4314" />
      <path
         d="m 328.34866,92.310737 h 20.42447 l 25.79183,48.638733 V 92.310737 h 17.33705 v 70.915653 h -20.42447 l -25.79183,-48.63873 v 48.63873 h -17.33705 z"
         style="stroke-width:2.43193698"
         id="path4316" />
      <path
         d="m 409.85654,92.310737 h 18.28702 v 42.511393 q 0,8.78727 2.84993,12.58718 2.89742,3.7524 9.40475,3.7524 6.55483,0 9.40476,-3.7524 2.89742,-3.79991 2.89742,-12.58718 V 92.310737 h 18.28703 v 42.511393 q 0,15.05711 -7.5523,22.41942 -7.55231,7.36231 -23.03691,7.36231 -15.43709,0 -22.9894,-7.36231 -7.5523,-7.36231 -7.5523,-22.41942 z"
         style="stroke-width:2.43193698"
         id="path4318" />
      <path
         d="m 488.8945,92.310737 h 23.2744 l 16.14958,37.951513 16.24458,-37.951513 h 23.22689 V 163.22639 H 550.5004 v -51.86865 l -16.33957,38.23651 h -11.5897 l -16.33958,-38.23651 v 51.86865 H 488.8945 Z"
         style="stroke-width:2.43193698"
         id="path4320" />
      <path
         d="m 683.35446,157.95403 q -6.83982,3.32492 -14.20213,4.98737 -7.36231,1.66246 -15.19961,1.66246 -17.71704,0 -28.07177,-9.87974 -10.35473,-9.92725 -10.35473,-26.88431 0,-17.14705 10.54473,-26.9793 10.54472,-9.83224 28.87925,-9.83224 7.07731,0 13.53715,1.329965 6.50733,1.329966 12.25468,3.942398 v 14.677117 q -5.93735,-3.37241 -11.8272,-5.03487 -5.84234,-1.66245 -11.73219,-1.66245 -10.92472,0 -16.86206,6.12734 -5.88985,6.07984 -5.88985,17.43204 0,11.25721 5.69985,17.38455 5.69985,6.12734 16.19708,6.12734 2.84993,0 5.27236,-0.33249 2.46994,-0.37999 4.41739,-1.13997 V 136.1046 H 654.8552 v -12.25468 h 28.49926 z"
         style="stroke-width:2.43193698"
         id="path4322" />
      <path
         d="m 731.80319,104.28043 q -8.35979,0 -12.96717,6.17484 -4.60738,6.17483 -4.60738,17.38454 0,11.16221 4.60738,17.33705 4.60738,6.17484 12.96717,6.17484 8.40728,0 13.01466,-6.17484 4.60738,-6.17484 4.60738,-17.33705 0,-11.20971 -4.60738,-17.38454 -4.60738,-6.17484 -13.01466,-6.17484 z m 0,-13.25216 q 17.09955,0 26.7893,9.78475 9.68975,9.78474 9.68975,27.02679 0,17.19456 -9.68975,26.9793 -9.68975,9.78475 -26.7893,9.78475 -17.05206,0 -26.78931,-9.78475 -9.68975,-9.78474 -9.68975,-26.9793 0,-17.24205 9.68975,-27.02679 9.73725,-9.78475 26.78931,-9.78475 z"
         style="stroke-width:2.43193698"
         id="path4324" />
      <path
         d="m 782.05685,92.310737 h 18.28703 v 57.093513 h 32.10917 v 13.82214 h -50.3962 z"
         style="stroke-width:2.43193698"
         id="path4326" />
      <path
         d="m 862.2823,106.13288 v 43.27137 h 6.55483 q 11.2097,0 17.09955,-5.55735 5.93735,-5.55736 5.93735,-16.14958 0,-10.54473 -5.88985,-16.05459 -5.88985,-5.50985 -17.14705,-5.50985 z M 843.99527,92.310737 h 19.2845 q 16.14958,0 24.03438,2.327439 7.93229,2.279941 13.58464,7.789794 4.98737,4.79738 7.40981,11.06722 2.42244,6.26983 2.42244,14.20213 0,8.02729 -2.42244,14.34462 -2.42244,6.26984 -7.40981,11.06722 -5.69985,5.50985 -13.67964,7.83729 -7.9798,2.27994 -23.93938,2.27994 h -19.2845 z"
         style="stroke-width:2.43193698"
         id="path4328" />
      <path
         d="m 984.54411,123.75492 q 5.74735,0 8.21729,-2.13744 2.51743,-2.13745 2.51743,-7.02982 0,-4.84488 -2.51743,-6.93482 -2.46994,-2.08995 -8.21729,-2.08995 h -7.6948 v 18.19203 z m -7.6948,12.63467 v 26.8368 H 958.56229 V 92.310737 h 27.92927 q 14.01214,0 20.51944,4.702377 6.5549,4.702376 6.5549,14.867116 0,7.02982 -3.42,11.5422 -3.3724,4.51238 -10.21219,6.64983 3.75239,0.85497 6.69729,3.89489 2.9925,2.99243 6.0324,9.11977 l 9.9272,20.13947 h -19.4745 l -8.64475,-17.62204 q -2.61243,-5.31986 -5.31986,-7.26731 -2.65993,-1.94745 -7.12481,-1.94745 z"
         style="stroke-width:2.43193698"
         id="path4330" />
      <path
         d="m 1033.4203,92.310737 h 49.3512 v 13.822143 h -31.0642 v 13.20465 h 29.2118 v 13.82215 h -29.2118 v 16.24457 h 32.1092 v 13.82214 h -50.3962 z"
         style="stroke-width:2.43193698"
         id="path4332" />
      <path
         d="m 1156.1571,159.3315 q -5.0348,2.61243 -10.4972,3.94239 -5.4623,1.32997 -11.3997,1.32997 -17.717,0 -28.0718,-9.87974 -10.3547,-9.92725 -10.3547,-26.88431 0,-17.00455 10.3547,-26.8843 10.3548,-9.92724 28.0718,-9.92724 5.9374,0 11.3997,1.329965 5.4624,1.329966 10.4972,3.942398 v 14.677117 q -5.0823,-3.46741 -10.0222,-5.08237 -4.9399,-1.61495 -10.4022,-1.61495 -9.7848,0 -15.3896,6.26983 -5.6049,6.26984 -5.6049,17.28955 0,10.97222 5.6049,17.24206 5.6048,6.26983 15.3896,6.26983 5.4623,0 10.4022,-1.61495 4.9399,-1.61496 10.0222,-5.08237 z"
         style="stroke-width:2.43193698"
         id="path4334" />
      <path
         d="m 1203.7509,104.28043 q -8.3598,0 -12.9672,6.17484 -4.6074,6.17483 -4.6074,17.38454 0,11.16221 4.6074,17.33705 4.6074,6.17484 12.9672,6.17484 8.4073,0 13.0146,-6.17484 4.6074,-6.17484 4.6074,-17.33705 0,-11.20971 -4.6074,-17.38454 -4.6073,-6.17484 -13.0146,-6.17484 z m 0,-13.25216 q 17.0995,0 26.7893,9.78475 9.6897,9.78474 9.6897,27.02679 0,17.19456 -9.6897,26.9793 -9.6898,9.78475 -26.7893,9.78475 -17.0521,0 -26.7893,-9.78475 -9.6898,-9.78474 -9.6898,-26.9793 0,-17.24205 9.6898,-27.02679 9.7372,-9.78475 26.7893,-9.78475 z"
         style="stroke-width:2.43193698"
         id="path4336" />
      <path
         d="m 1279.9865,123.75492 q 5.7473,0 8.2173,-2.13744 2.5174,-2.13745 2.5174,-7.02982 0,-4.84488 -2.5174,-6.93482 -2.47,-2.08995 -8.2173,-2.08995 h -7.6948 v 18.19203 z m -7.6948,12.63467 v 26.8368 h -18.287 V 92.310737 h 27.9292 q 14.0122,0 20.5195,4.702377 6.5548,4.702376 6.5548,14.867116 0,7.02982 -3.4199,11.5422 -3.3724,4.51238 -10.2122,6.64983 3.7524,0.85497 6.6973,3.89489 2.9924,2.99243 6.0324,9.11977 l 9.9272,20.13947 h -19.4745 l -8.6448,-17.62204 q -2.6124,-5.31986 -5.3198,-7.26731 -2.66,-1.94745 -7.1248,-1.94745 z"
         style="stroke-width:2.43193698"
         id="path4338" />
      <path
         d="m 1347.1497,106.13288 v 43.27137 h 6.5549 q 11.2097,0 17.0995,-5.55735 5.9374,-5.55736 5.9374,-16.14958 0,-10.54473 -5.8899,-16.05459 -5.8898,-5.50985 -17.147,-5.50985 z m -18.287,-13.822143 h 19.2845 q 16.1496,0 24.0344,2.327439 7.9323,2.279941 13.5846,7.789794 4.9874,4.79738 7.4098,11.06722 2.4225,6.26983 2.4225,14.20213 0,8.02729 -2.4225,14.34462 -2.4224,6.26984 -7.4098,11.06722 -5.6998,5.50985 -13.6796,7.83729 -7.9798,2.27994 -23.9394,2.27994 h -19.2845 z"
         style="stroke-width:2.43193698"
         id="path4340" />
      <path
         d="m 1458.9618,94.543179 v 15.009611 q -5.8423,-2.61243 -11.3997,-3.9424 -5.5573,-1.32996 -10.4972,-1.32996 -6.5548,0 -9.6897,1.80495 -3.135,1.80495 -3.135,5.60485 0,2.84993 2.09,4.46489 2.1374,1.56746 7.6948,2.70743 l 7.7898,1.56746 q 11.8272,2.37493 16.8146,7.21981 4.9873,4.84487 4.9873,13.77464 0,11.7322 -6.9823,17.47955 -6.9348,5.69985 -21.2319,5.69985 -6.7449,0 -13.5372,-1.28247 -6.7923,-1.28246 -13.5846,-3.7999 v -15.4371 q 6.7923,3.60991 13.1096,5.46236 6.3649,1.80495 12.2547,1.80495 5.9848,0 9.1673,-1.99495 3.1824,-1.99494 3.1824,-5.69985 0,-3.32491 -2.185,-5.12986 -2.1374,-1.80496 -8.5972,-3.22992 l -7.0774,-1.56746 q -10.6397,-2.27994 -15.5795,-7.26731 -4.8924,-4.98737 -4.8924,-13.44215 0,-10.59223 6.8398,-16.292078 6.8398,-5.699852 19.6645,-5.699852 5.8423,0 12.0172,0.902476 6.1748,0.854978 12.7771,2.612433 z"
         style="stroke-width:2.43193698"
         id="path4342" />
      <path
         d="m 1513.5379,92.310737 h 18.287 v 42.511393 q 0,8.78727 2.8499,12.58718 2.8974,3.7524 9.4048,3.7524 6.5548,0 9.4047,-3.7524 2.8975,-3.79991 2.8975,-12.58718 V 92.310737 h 18.287 v 42.511393 q 0,15.05711 -7.5523,22.41942 -7.5523,7.36231 -23.0369,7.36231 -15.4371,0 -22.9894,-7.36231 -7.5523,-7.36231 -7.5523,-22.41942 z"
         style="stroke-width:2.43193698"
         id="path4344" />
      <path
         d="m 1592.5758,92.310737 h 20.4245 l 25.7918,48.638733 V 92.310737 h 17.3371 v 70.915653 h -20.4245 l -25.7918,-48.63873 v 48.63873 h -17.3371 z"
         style="stroke-width:2.43193698"
         id="path4346" />
      <path
         d="m 1674.0836,92.310737 h 18.2871 v 57.093513 h 32.1091 v 13.82214 h -50.3962 z"
         style="stroke-width:2.43193698"
         id="path4348" />
      <path
         d="m 1736.0221,92.310737 h 18.2871 v 70.915653 h -18.2871 z"
         style="stroke-width:2.43193698"
         id="path4350" />
      <path
         d="m 1772.3112,92.310737 h 23.2744 l 16.1496,37.951513 16.2445,-37.951513 h 23.2269 v 70.915653 h -17.2895 v -51.86865 l -16.3396,38.23651 h -11.5897 l -16.3396,-38.23651 v 51.86865 h -17.337 z"
         style="stroke-width:2.43193698"
         id="path4352" />
      <path
         d="m 1869.2086,92.310737 h 18.2871 v 70.915653 h -18.2871 z"
         style="stroke-width:2.43193698"
         id="path4354" />
      <path
         d="m 1897.0429,92.310737 h 65.3583 v 13.822143 h -23.5119 v 57.09351 h -18.287 v -57.09351 h -23.5594 z"
         style="stroke-width:2.43193698"
         id="path4356" />
      <path
         d="m 1971.8059,92.310737 h 49.3513 v 13.822143 h -31.0642 v 13.20465 h 29.2117 v 13.82215 h -29.2117 v 16.24457 h 32.1091 v 13.82214 h -50.3962 z"
         style="stroke-width:2.43193698"
         id="path4358" />
      <path
         d="m 2056.5913,106.13288 v 43.27137 h 6.5548 q 11.2097,0 17.0995,-5.55735 5.9374,-5.55736 5.9374,-16.14958 0,-10.54473 -5.8899,-16.05459 -5.8898,-5.50985 -17.147,-5.50985 z m -18.2871,-13.822143 h 19.2845 q 16.1496,0 24.0344,2.327439 7.9323,2.279941 13.5847,7.789794 4.9873,4.79738 7.4098,11.06722 2.4224,6.26983 2.4224,14.20213 0,8.02729 -2.4224,14.34462 -2.4225,6.26984 -7.4098,11.06722 -5.6999,5.50985 -13.6797,7.83729 -7.9798,2.27994 -23.9394,2.27994 h -19.2845 z"
         style="stroke-width:2.43193698"
         id="path4360" />
      <path
         d="m 2149.5937,137.62456 q 0,5.84235 2.47,9.21476 2.5174,3.37241 6.7923,3.37241 4.2274,0 6.7448,-3.37241 2.5175,-3.41991 2.5175,-9.21476 0,-5.74735 -2.565,-9.07226 -2.5174,-3.37242 -6.7923,-3.37242 -4.1799,0 -6.6973,3.37242 -2.47,3.32491 -2.47,9.07226 z m 19.4745,14.29713 q -1.4249,3.37241 -4.6073,5.27236 -3.135,1.85245 -7.3624,1.85245 -8.1697,0 -13.2996,-5.88984 -5.0824,-5.93735 -5.0824,-15.4371 0,-9.49976 5.1299,-15.4371 5.1299,-5.93735 13.2521,-5.93735 4.2274,0 7.3624,1.89995 3.1824,1.89995 4.6073,5.27237 v -6.22234 h 9.9273 v 32.91664 q 5.8898,-0.90247 9.2622,-5.65235 3.3724,-4.79738 3.3724,-12.25468 0,-4.74988 -1.3774,-8.88227 -1.3775,-4.17989 -4.1799,-7.6473 -4.5124,-5.79485 -11.3047,-8.92977 -6.7448,-3.13492 -14.6296,-3.13492 -5.5099,0 -10.5448,1.47246 -5.0348,1.42497 -9.3097,4.22739 -7.0298,4.65488 -10.9722,12.06469 -3.8949,7.36231 -3.8949,15.95958 0,7.07732 2.5174,13.29966 2.5649,6.17484 7.3623,10.92472 4.7499,4.65487 10.8772,7.07731 6.1749,2.46994 13.1572,2.46994 5.9848,0 11.9697,-2.23244 5.9848,-2.23245 10.2122,-6.03235 l 5.0824,7.6948 q -5.9374,4.60738 -12.9672,7.02982 -6.9823,2.46994 -14.2021,2.46994 -8.7873,0 -16.5771,-3.13492 -7.7898,-3.08742 -13.8696,-9.02477 -6.0799,-5.93734 -9.2623,-13.72714 -3.1824,-7.8373 -3.1824,-16.81457 0,-8.64477 3.2299,-16.48207 3.2299,-7.83729 9.2148,-13.77464 5.9848,-5.88985 13.9171,-9.119763 7.9798,-3.229916 16.5296,-3.229916 10.6397,0 19.332,4.084894 8.6923,4.037395 14.5346,11.684695 3.5624,4.65488 5.3674,10.11724 1.8524,5.41486 1.8524,11.3997 0,12.87217 -7.7423,19.99698 -7.7423,7.12482 -21.8494,7.12482 h -1.8525 z"
         style="stroke-width:2.43193698"
         id="path4362" />
      <path
         d="m 2280.073,157.95403 q -6.8399,3.32492 -14.2022,4.98737 -7.3623,1.66246 -15.1996,1.66246 -17.717,0 -28.0717,-9.87974 -10.3548,-9.92725 -10.3548,-26.88431 0,-17.14705 10.5448,-26.9793 10.5447,-9.83224 28.8792,-9.83224 7.0773,0 13.5372,1.329965 6.5073,1.329966 12.2546,3.942398 v 14.677117 q -5.9373,-3.37241 -11.8272,-5.03487 -5.8423,-1.66245 -11.7322,-1.66245 -10.9247,0 -16.862,6.12734 -5.8899,6.07984 -5.8899,17.43204 0,11.25721 5.6999,17.38455 5.6998,6.12734 16.1971,6.12734 2.8499,0 5.2723,-0.33249 2.47,-0.37999 4.4174,-1.13997 V 136.1046 h -11.1622 v -12.25468 h 28.4993 z"
         style="stroke-width:2.43193698"
         id="path4364" />
      <path
         d="m 2296.1275,92.310737 h 23.2744 l 16.1495,37.951513 16.2446,-37.951513 h 23.2269 v 70.915653 h -17.2895 v -51.86865 l -16.3396,38.23651 h -11.5897 l -16.3396,-38.23651 v 51.86865 h -17.337 z"
         style="stroke-width:2.43193698"
         id="path4366" />
      <path
         d="m 2436.0588,150.30673 h -28.5942 l -4.5124,12.91966 h -18.382 l 26.2668,-70.915653 h 21.8019 l 26.2668,70.915653 h -18.382 z m -24.0344,-13.15716 h 19.427 l -9.6897,-28.21427 z"
         style="stroke-width:2.43193698"
         id="path4368" />
      <path
         d="m 2468.263,92.310737 h 18.287 v 70.915653 h -18.287 z"
         style="stroke-width:2.43193698"
         id="path4370" />
      <path
         d="m 2504.552,92.310737 h 18.2871 v 57.093513 h 32.1091 v 13.82214 h -50.3962 z"
         style="stroke-width:2.43193698"
         id="path4372" />
      <path
         d="m 2567.488,144.84437 h 17.0995 v 18.38202 h -17.0995 z"
         style="stroke-width:2.43193698"
         id="path4374" />
      <path
         d="m 2659.7781,159.3315 q -5.0348,2.61243 -10.4972,3.94239 -5.4624,1.32997 -11.3997,1.32997 -17.7171,0 -28.0718,-9.87974 -10.3547,-9.92725 -10.3547,-26.88431 0,-17.00455 10.3547,-26.8843 10.3547,-9.92724 28.0718,-9.92724 5.9373,0 11.3997,1.329965 5.4624,1.329966 10.4972,3.942398 v 14.677117 q -5.0823,-3.46741 -10.0222,-5.08237 -4.9399,-1.61495 -10.4022,-1.61495 -9.7848,0 -15.3896,6.26983 -5.6049,6.26984 -5.6049,17.28955 0,10.97222 5.6049,17.24206 5.6048,6.26983 15.3896,6.26983 5.4623,0 10.4022,-1.61495 4.9399,-1.61496 10.0222,-5.08237 z"
         style="stroke-width:2.43193698"
         id="path4376" />
      <path
         d="m 2707.372,104.28043 q -8.3598,0 -12.9672,6.17484 -4.6074,6.17483 -4.6074,17.38454 0,11.16221 4.6074,17.33705 4.6074,6.17484 12.9672,6.17484 8.4073,0 13.0146,-6.17484 4.6074,-6.17484 4.6074,-17.33705 0,-11.20971 -4.6074,-17.38454 -4.6073,-6.17484 -13.0146,-6.17484 z m 0,-13.25216 q 17.0995,0 26.7893,9.78475 9.6897,9.78474 9.6897,27.02679 0,17.19456 -9.6897,26.9793 -9.6898,9.78475 -26.7893,9.78475 -17.0521,0 -26.7893,-9.78475 -9.6898,-9.78474 -9.6898,-26.9793 0,-17.24205 9.6898,-27.02679 9.7372,-9.78475 26.7893,-9.78475 z"
         style="stroke-width:2.43193698"
         id="path4378" />
      <path
         d="m 2757.6255,92.310737 h 23.2744 l 16.1496,37.951513 16.2446,-37.951513 h 23.2269 v 70.915653 h -17.2896 v -51.86865 l -16.3396,38.23651 h -11.5897 l -16.3395,-38.23651 v 51.86865 h -17.3371 z"
         style="stroke-width:2.43193698"
         id="path4380" />
    </g>
    <g
       aria-label="PLATINUM GOLD RECORDS UNLIMITED@GMAIL.COM"
       transform="scale(0.34964947,2.8600072)"
       style="font-style:normal;font-variant:normal;font-weight:bold;font-stretch:normal;font-size:104.5050354px;line-height:1.25;font-family:sans-serif;-inkscape-font-specification:'sans-serif Bold';letter-spacing:0px;word-spacing:0px;fill:#000000;fill-opacity:1;stroke:none;stroke-width:2.61262608"
       id="text4227">
      <path
         d="M 35.015935,154.83327 H 67.62273 q 14.542937,0 22.299171,6.48054 7.80726,6.42951 7.80726,18.37003 0,11.99154 -7.80726,18.47208 -7.756234,6.42951 -22.299171,6.42951 H 54.661657 v 26.43242 H 35.015935 Z m 19.645722,14.23677 v 21.27862 h 10.868932 q 5.715119,0 8.827817,-2.75551 3.112699,-2.80653 3.112699,-7.90931 0,-5.10279 -3.112699,-7.85829 -3.112698,-2.75551 -8.827817,-2.75551 z"
         style="stroke-width:2.61262608"
         id="path4383" />
      <path
         d="m 111.55771,154.83327 h 19.64572 v 61.33548 h 34.49482 v 14.8491 h -54.14054 z"
         style="stroke-width:2.61262608"
         id="path4385" />
      <path
         d="m 224.32926,217.13828 h -30.71877 l -4.84764,13.87957 h -19.74778 l 28.2184,-76.18458 h 23.42178 l 28.2184,76.18458 h -19.74777 z m -25.82009,-14.13472 h 20.87039 l -10.40968,-30.31054 z"
         style="stroke-width:2.61262608"
         id="path4387" />
      <path
         d="m 241.67872,154.83327 h 70.21432 v 14.84911 h -25.25878 v 61.33547 h -19.64573 v -61.33547 h -25.30981 z"
         style="stroke-width:2.61262608"
         id="path4389" />
      <path
         d="m 321.99656,154.83327 h 19.64572 v 76.18458 h -19.64572 z"
         style="stroke-width:2.61262608"
         id="path4391" />
      <path
         d="m 360.98182,154.83327 h 21.94197 l 27.70812,52.25252 v -52.25252 h 18.62517 v 76.18458 H 407.3151 l -27.70812,-52.25251 v 52.25251 h -18.62516 z"
         style="stroke-width:2.61262608"
         id="path4393" />
      <path
         d="m 448.54563,154.83327 h 19.64572 v 45.66993 q 0,9.44015 3.06167,13.52238 3.1127,4.0312 10.10352,4.0312 7.04184,0 10.10351,-4.0312 3.1127,-4.08223 3.1127,-13.52238 v -45.66993 h 19.64572 v 45.66993 q 0,16.17583 -8.11343,24.08514 -8.11343,7.90932 -24.7485,7.90932 -16.58406,0 -24.69748,-7.90932 -8.11343,-7.90931 -8.11343,-24.08514 z"
         style="stroke-width:2.61262608"
         id="path4395" />
      <path
         d="m 533.45597,154.83327 h 25.00364 l 17.34947,40.77126 17.45153,-40.77126 h 24.95262 v 76.18458 h -18.57414 v -55.72241 l -17.55358,41.07742 h -12.4508 l -17.55358,-41.07742 v 55.72241 h -18.62516 z"
         style="stroke-width:2.61262608"
         id="path4397" />
      <path
         d="m 742.36396,225.35376 q -7.34801,3.57195 -15.25733,5.35793 -7.90931,1.78597 -16.32891,1.78597 -19.03339,0 -30.15746,-10.61379 -11.12407,-10.66482 -11.12407,-28.88176 0,-18.42106 11.32818,-28.98382 11.32819,-10.56277 31.02494,-10.56277 7.60315,0 14.54293,1.42878 6.99082,1.42878 13.16519,4.23531 v 15.76761 q -6.37848,-3.62298 -12.70594,-5.40895 -6.27642,-1.78598 -12.60387,-1.78598 -11.73641,0 -18.11489,6.58259 -6.32745,6.53157 -6.32745,18.72723 0,12.0936 6.12334,18.67619 6.12334,6.58259 17.40049,6.58259 3.06168,0 5.6641,-0.35719 2.65344,-0.40823 4.74559,-1.22467 v -14.79808 h -11.99155 v -13.16518 h 30.61671 z"
         style="stroke-width:2.61262608"
         id="path4399" />
      <path
         d="m 794.41239,167.69229 q -8.9809,0 -13.93061,6.63362 -4.9497,6.63362 -4.9497,18.6762 0,11.99154 4.9497,18.62516 4.94971,6.63362 13.93061,6.63362 9.03193,0 13.98163,-6.63362 4.9497,-6.63362 4.9497,-18.62516 0,-12.04258 -4.9497,-18.6762 -4.9497,-6.63362 -13.98163,-6.63362 z m 0,-14.23677 q 18.37002,0 28.7797,10.51174 10.40969,10.51174 10.40969,29.03485 0,18.47208 -10.40969,28.98381 -10.40968,10.51174 -28.7797,10.51174 -18.319,0 -28.77971,-10.51174 -10.40968,-10.51173 -10.40968,-28.98381 0,-18.52311 10.40968,-29.03485 10.46071,-10.51174 28.77971,-10.51174 z"
         style="stroke-width:2.61262608"
         id="path4401" />
      <path
         d="m 848.39985,154.83327 h 19.64572 v 61.33548 h 34.49482 v 14.8491 h -54.14054 z"
         style="stroke-width:2.61262608"
         id="path4403" />
      <path
         d="m 934.58585,169.68238 v 46.48637 h 7.04184 q 12.04258,0 18.37003,-5.97026 6.37848,-5.97026 6.37848,-17.34947 0,-11.32818 -6.32745,-17.24741 -6.32746,-5.91923 -18.42106,-5.91923 z m -19.64572,-14.84911 h 20.71731 q 17.34946,0 25.82009,2.50037 8.52165,2.44934 14.59396,8.36857 5.35793,5.15381 7.96035,11.88948 2.60242,6.73568 2.60242,15.25733 0,8.62371 -2.60242,15.41041 -2.60242,6.73568 -7.96035,11.88949 -6.12334,5.91923 -14.69602,8.4196 -8.57268,2.44933 -25.71803,2.44933 h -20.71731 z"
         style="stroke-width:2.61262608"
         id="path4405" />
      <path
         d="m 1065.9316,188.61371 q 6.1744,0 8.8278,-2.29625 2.7045,-2.29626 2.7045,-7.55212 0,-5.20485 -2.7045,-7.45007 -2.6534,-2.24523 -8.8278,-2.24523 h -8.2665 v 19.54367 z m -8.2665,13.57341 v 28.83073 h -19.6457 v -76.18458 h 30.0043 q 15.0532,0 22.0441,5.05176 7.0418,5.05176 7.0418,15.97172 0,7.55212 -3.674,12.39977 -3.623,4.84764 -10.971,7.14389 4.0312,0.91851 7.1949,4.18429 3.2148,3.21475 6.4806,9.79734 l 10.6648,21.63581 h -20.9214 l -9.2871,-18.93133 q -2.8065,-5.71512 -5.7151,-7.80726 -2.8576,-2.09214 -7.6542,-2.09214 z"
         style="stroke-width:2.61262608"
         id="path4407" />
      <path
         d="m 1118.4393,154.83327 h 53.0179 v 14.84911 h -33.3722 v 14.18574 h 31.3821 v 14.8491 h -31.3821 v 17.45153 h 34.4948 v 14.8491 h -54.1405 z"
         style="stroke-width:2.61262608"
         id="path4409" />
      <path
         d="m 1250.2952,226.83357 q -5.4089,2.80653 -11.2771,4.23531 -5.8682,1.42878 -12.2467,1.42878 -19.0334,0 -30.1575,-10.61379 -11.1241,-10.66482 -11.1241,-28.88176 0,-18.26798 11.1241,-28.88177 11.1241,-10.66482 30.1575,-10.66482 6.3785,0 12.2467,1.42878 5.8682,1.42878 11.2771,4.23531 v 15.76761 q -5.46,-3.72503 -10.7669,-5.45998 -5.3069,-1.73495 -11.1751,-1.73495 -10.5117,0 -16.533,6.73568 -6.0213,6.73567 -6.0213,18.57414 0,11.78743 6.0213,18.5231 6.0213,6.73568 16.533,6.73568 5.8682,0 11.1751,-1.73495 5.3069,-1.73494 10.7669,-5.45998 z"
         style="stroke-width:2.61262608"
         id="path4411" />
      <path
         d="m 1301.4251,167.69229 q -8.9809,0 -13.9306,6.63362 -4.9497,6.63362 -4.9497,18.6762 0,11.99154 4.9497,18.62516 4.9497,6.63362 13.9306,6.63362 9.0319,0 13.9816,-6.63362 4.9497,-6.63362 4.9497,-18.62516 0,-12.04258 -4.9497,-18.6762 -4.9497,-6.63362 -13.9816,-6.63362 z m 0,-14.23677 q 18.37,0 28.7797,10.51174 10.4097,10.51174 10.4097,29.03485 0,18.47208 -10.4097,28.98381 -10.4097,10.51174 -28.7797,10.51174 -18.319,0 -28.7797,-10.51174 -10.4097,-10.51173 -10.4097,-28.98381 0,-18.52311 10.4097,-29.03485 10.4607,-10.51174 28.7797,-10.51174 z"
         style="stroke-width:2.61262608"
         id="path4413" />
      <path
         d="m 1383.3248,188.61371 q 6.1743,0 8.8278,-2.29625 2.7045,-2.29626 2.7045,-7.55212 0,-5.20485 -2.7045,-7.45007 -2.6535,-2.24523 -8.8278,-2.24523 h -8.2665 v 19.54367 z m -8.2665,13.57341 v 28.83073 h -19.6458 v -76.18458 h 30.0044 q 15.0532,0 22.044,5.05176 7.0419,5.05176 7.0419,15.97172 0,7.55212 -3.674,12.39977 -3.623,4.84764 -10.971,7.14389 4.0312,0.91851 7.1949,4.18429 3.2148,3.21475 6.4806,9.79734 l 10.6648,21.63581 h -20.9214 l -9.2871,-18.93133 q -2.8065,-5.71512 -5.7151,-7.80726 -2.8576,-2.09214 -7.6542,-2.09214 z"
         style="stroke-width:2.61262608"
         id="path4415" />
      <path
         d="m 1455.4782,169.68238 v 46.48637 h 7.0418 q 12.0426,0 18.3701,-5.97026 6.3784,-5.97026 6.3784,-17.34947 0,-11.32818 -6.3274,-17.24741 -6.3275,-5.91923 -18.4211,-5.91923 z m -19.6457,-14.84911 h 20.7173 q 17.3494,0 25.8201,2.50037 8.5216,2.44934 14.5939,8.36857 5.358,5.15381 7.9604,11.88948 2.6024,6.73568 2.6024,15.25733 0,8.62371 -2.6024,15.41041 -2.6024,6.73568 -7.9604,11.88949 -6.1233,5.91923 -14.696,8.4196 -8.5727,2.44933 -25.718,2.44933 h -20.7173 z"
         style="stroke-width:2.61262608"
         id="path4417" />
      <path
         d="m 1575.5977,157.23158 v 16.1248 q -6.2764,-2.80653 -12.2467,-4.23531 -5.9702,-1.42878 -11.2771,-1.42878 -7.0419,0 -10.4097,1.93906 -3.3678,1.93906 -3.3678,6.02129 0,3.06167 2.2452,4.79661 2.2962,1.68392 8.2665,2.90859 l 8.3686,1.68392 q 12.7059,2.55139 18.0638,7.75623 5.3579,5.20484 5.3579,14.79808 0,12.60388 -7.5011,18.77825 -7.45,6.12334 -22.8094,6.12334 -7.246,0 -14.5429,-1.37775 -7.297,-1.37775 -14.594,-4.08223 v -16.58405 q 7.297,3.87812 14.0837,5.8682 6.8377,1.93906 13.1652,1.93906 6.4295,0 9.8483,-2.14317 3.4189,-2.14317 3.4189,-6.12334 0,-3.57195 -2.3473,-5.51101 -2.2962,-1.93906 -9.236,-3.46989 l -7.6032,-1.68392 q -11.4302,-2.44934 -16.7371,-7.80726 -5.2559,-5.35793 -5.2559,-14.44088 0,-11.37921 7.348,-17.50256 7.3481,-6.12334 21.1256,-6.12334 6.2764,0 12.91,0.96953 6.6336,0.9185 13.7265,2.80653 z"
         style="stroke-width:2.61262608"
         id="path4419" />
      <path
         d="m 1634.2287,154.83327 h 19.6457 v 45.66993 q 0,9.44015 3.0617,13.52238 3.1127,4.0312 10.1035,4.0312 7.0419,0 10.1035,-4.0312 3.1127,-4.08223 3.1127,-13.52238 v -45.66993 h 19.6457 v 45.66993 q 0,16.17583 -8.1134,24.08514 -8.1134,7.90932 -24.7485,7.90932 -16.584,0 -24.6975,-7.90932 -8.1134,-7.90931 -8.1134,-24.08514 z"
         style="stroke-width:2.61262608"
         id="path4421" />
      <path
         d="m 1719.1391,154.83327 h 21.942 l 27.7081,52.25252 v -52.25252 h 18.6252 v 76.18458 h -21.942 l -27.7081,-52.25251 v 52.25251 h -18.6252 z"
         style="stroke-width:2.61262608"
         id="path4423" />
      <path
         d="m 1806.7028,154.83327 h 19.6457 v 61.33548 h 34.4949 v 14.8491 h -54.1406 z"
         style="stroke-width:2.61262608"
         id="path4425" />
      <path
         d="m 1873.2432,154.83327 h 19.6458 v 76.18458 h -19.6458 z"
         style="stroke-width:2.61262608"
         id="path4427" />
      <path
         d="m 1912.2285,154.83327 h 25.0036 l 17.3495,40.77126 17.4515,-40.77126 h 24.9526 v 76.18458 h -18.5741 v -55.72241 l -17.5536,41.07742 h -12.4508 l -17.5536,-41.07742 v 55.72241 h -18.6251 z"
         style="stroke-width:2.61262608"
         id="path4429" />
      <path
         d="m 2016.3253,154.83327 h 19.6457 v 76.18458 h -19.6457 z"
         style="stroke-width:2.61262608"
         id="path4431" />
      <path
         d="m 2046.2275,154.83327 h 70.2144 v 14.84911 h -25.2588 v 61.33547 h -19.6458 v -61.33547 h -25.3098 z"
         style="stroke-width:2.61262608"
         id="path4433" />
      <path
         d="m 2126.5455,154.83327 h 53.0179 v 14.84911 h -33.3722 v 14.18574 h 31.3821 v 14.8491 h -31.3821 v 17.45153 h 34.4948 v 14.8491 h -54.1405 z"
         style="stroke-width:2.61262608"
         id="path4435" />
      <path
         d="m 2217.6302,169.68238 v 46.48637 h 7.0418 q 12.0426,0 18.37,-5.97026 6.3785,-5.97026 6.3785,-17.34947 0,-11.32818 -6.3274,-17.24741 -6.3275,-5.91923 -18.4211,-5.91923 z m -19.6458,-14.84911 h 20.7173 q 17.3495,0 25.8201,2.50037 8.5217,2.44934 14.594,8.36857 5.3579,5.15381 7.9603,11.88948 2.6025,6.73568 2.6025,15.25733 0,8.62371 -2.6025,15.41041 -2.6024,6.73568 -7.9603,11.88949 -6.1233,5.91923 -14.696,8.4196 -8.5727,2.44933 -25.7181,2.44933 h -20.7173 z"
         style="stroke-width:2.61262608"
         id="path4437" />
      <path
         d="m 2317.5427,203.51384 q 0,6.27643 2.6534,9.8994 2.7045,3.62298 7.297,3.62298 4.5415,0 7.2459,-3.62298 2.7045,-3.674 2.7045,-9.8994 0,-6.17437 -2.7555,-9.74632 -2.7045,-3.62297 -7.297,-3.62297 -4.4904,0 -7.1949,3.62297 -2.6534,3.57195 -2.6534,9.74632 z m 20.9214,15.35938 q -1.5309,3.62298 -4.9497,5.6641 -3.3679,1.99008 -7.9093,1.99008 -8.7768,0 -14.2878,-6.32745 -5.46,-6.37848 -5.46,-16.58405 0,-10.20557 5.511,-16.58405 5.511,-6.37848 14.2368,-6.37848 4.5414,0 7.9093,2.04111 3.4188,2.04111 4.9497,5.66409 v -6.68465 h 10.6648 v 35.3623 q 6.3275,-0.96953 9.9504,-6.07231 3.623,-5.15381 3.623,-13.16519 0,-5.10278 -1.4798,-9.5422 -1.4798,-4.49046 -4.4904,-8.21549 -4.8477,-6.2254 -12.1447,-9.59323 -7.2459,-3.36784 -15.7166,-3.36784 -5.9192,0 -11.3281,1.58186 -5.409,1.53084 -10.0015,4.54148 -7.5521,5.00073 -11.7874,12.96107 -4.1843,7.90932 -4.1843,17.14536 0,7.60315 2.7045,14.2878 2.7555,6.63362 7.9093,11.7364 5.1028,5.00073 11.6854,7.60315 6.6336,2.65345 14.1347,2.65345 6.4295,0 12.859,-2.39831 6.4295,-2.39831 10.971,-6.48053 l 5.46,8.26651 q -6.3785,4.9497 -13.9306,7.55212 -7.5011,2.65345 -15.2574,2.65345 -9.4401,0 -17.8087,-3.36784 -8.3686,-3.31681 -14.9001,-9.69529 -6.5316,-6.37848 -9.9505,-14.74705 -3.4188,-8.4196 -3.4188,-18.06386 0,-9.28707 3.4699,-17.70666 3.4699,-8.4196 9.8994,-14.79808 6.4295,-6.32745 14.9511,-9.79735 8.5727,-3.46989 17.7577,-3.46989 11.4303,0 20.7684,4.38839 9.3381,4.33737 15.6145,12.55286 3.8271,5.00072 5.7661,10.86893 1.9901,5.81717 1.9901,12.24668 0,13.82855 -8.3175,21.48273 -8.3176,7.65417 -23.4728,7.65417 h -1.9901 z"
         style="stroke-width:2.61262608"
         id="path4439" />
      <path
         d="m 2457.7163,225.35376 q -7.3481,3.57195 -15.2574,5.35793 -7.9093,1.78597 -16.3289,1.78597 -19.0334,0 -30.1574,-10.61379 -11.1241,-10.66482 -11.1241,-28.88176 0,-18.42106 11.3282,-28.98382 11.3282,-10.56277 31.0249,-10.56277 7.6032,0 14.5429,1.42878 6.9909,1.42878 13.1652,4.23531 v 15.76761 q -6.3785,-3.62298 -12.7059,-5.40895 -6.2764,-1.78598 -12.6039,-1.78598 -11.7364,0 -18.1149,6.58259 -6.3274,6.53157 -6.3274,18.72723 0,12.0936 6.1233,18.67619 6.1234,6.58259 17.4005,6.58259 3.0617,0 5.6641,-0.35719 2.6534,-0.40823 4.7456,-1.22467 v -14.79808 h -11.9916 v -13.16518 h 30.6168 z"
         style="stroke-width:2.61262608"
         id="path4441" />
      <path
         d="m 2474.9634,154.83327 h 25.0037 l 17.3495,40.77126 17.4515,-40.77126 h 24.9526 v 76.18458 h -18.5741 v -55.72241 l -17.5536,41.07742 h -12.4508 l -17.5536,-41.07742 v 55.72241 h -18.6252 z"
         style="stroke-width:2.61262608"
         id="path4443" />
      <path
         d="m 2625.2916,217.13828 h -30.7188 l -4.8476,13.87957 h -19.7478 l 28.2184,-76.18458 h 23.4218 l 28.2184,76.18458 h -19.7478 z m -25.8201,-14.13472 h 20.8704 l -10.4097,-30.31054 z"
         style="stroke-width:2.61262608"
         id="path4445" />
      <path
         d="m 2659.8885,154.83327 h 19.6457 v 76.18458 h -19.6457 z"
         style="stroke-width:2.61262608"
         id="path4447" />
      <path
         d="m 2698.8738,154.83327 h 19.6458 v 61.33548 h 34.4948 v 14.8491 h -54.1406 z"
         style="stroke-width:2.61262608"
         id="path4449" />
      <path
         d="m 2766.4857,211.27008 h 18.37 v 19.74777 h -18.37 z"
         style="stroke-width:2.61262608"
         id="path4451" />
      <path
         d="m 2865.6329,226.83357 q -5.409,2.80653 -11.2772,4.23531 -5.8682,1.42878 -12.2467,1.42878 -19.0334,0 -30.1574,-10.61379 -11.1241,-10.66482 -11.1241,-28.88176 0,-18.26798 11.1241,-28.88177 11.124,-10.66482 30.1574,-10.66482 6.3785,0 12.2467,1.42878 5.8682,1.42878 11.2772,4.23531 v 15.76761 q -5.46,-3.72503 -10.7669,-5.45998 -5.3069,-1.73495 -11.1751,-1.73495 -10.5118,0 -16.533,6.73568 -6.0213,6.73567 -6.0213,18.57414 0,11.78743 6.0213,18.5231 6.0212,6.73568 16.533,6.73568 5.8682,0 11.1751,-1.73495 5.3069,-1.73494 10.7669,-5.45998 z"
         style="stroke-width:2.61262608"
         id="path4453" />
      <path
         d="m 2916.7627,167.69229 q -8.9809,0 -13.9306,6.63362 -4.9497,6.63362 -4.9497,18.6762 0,11.99154 4.9497,18.62516 4.9497,6.63362 13.9306,6.63362 9.032,0 13.9817,-6.63362 4.9497,-6.63362 4.9497,-18.62516 0,-12.04258 -4.9497,-18.6762 -4.9497,-6.63362 -13.9817,-6.63362 z m 0,-14.23677 q 18.3701,0 28.7797,10.51174 10.4097,10.51174 10.4097,29.03485 0,18.47208 -10.4097,28.98381 -10.4096,10.51174 -28.7797,10.51174 -18.319,0 -28.7797,-10.51174 -10.4097,-10.51173 -10.4097,-28.98381 0,-18.52311 10.4097,-29.03485 10.4607,-10.51174 28.7797,-10.51174 z"
         style="stroke-width:2.61262608"
         id="path4455" />
      <path
         d="m 2970.7501,154.83327 h 25.0036 l 17.3495,40.77126 17.4515,-40.77126 h 24.9526 v 76.18458 h -18.5741 v -55.72241 l -17.5536,41.07742 h -12.4508 l -17.5536,-41.07742 v 55.72241 h -18.6251 z"
         style="stroke-width:2.61262608"
         id="path4457" />
    </g>
  </g>
</svg>
